<svg width="45" height="36" viewBox="0 0 45 36" fill="none" xmlns="http://www.w3.org/2000/svg">
<g filter="url(#filter0_di_5126_16138)">
<g filter="url(#filter1_di_5126_16138)">
<path d="M44.4164 16.3909V12.3684L44.625 12C44.625 13.2683 44.6109 16.1952 44.6109 16.2821C44.6109 16.3691 44.6368 16.4271 44.6498 16.4452C44.9338 16.7714 45 17.2062 45 17.2606C45 17.7817 44.9147 17.944 44.8833 18.0216C44.8171 18.1846 44.6731 18.5108 44.5447 18.6739L44.2996 19C44.2374 19 44.2737 18.7463 44.2996 18.6195C44.3256 18.4927 44.2335 18.0216 44.2218 17.9672C44.2082 17.9036 44.1829 17.7498 44.0273 17.1519C43.9028 16.6735 44.2348 16.4452 44.4164 16.3909Z" fill="#210401"/>
</g>
<path d="M40.5262 8.79717C40.4467 8.78338 40.4052 8.74889 40.4663 8.67186C40.5273 8.59483 40.5424 8.54264 40.5424 8.45297C40.6102 8.44226 40.7996 8.42317 40.8614 8.45297C40.9231 8.48276 40.9872 8.55281 41.0209 8.61246C41.0367 8.62888 40.9523 8.67182 40.9538 8.69453C40.9552 8.71725 40.9486 8.73976 40.9351 8.75808C40.9279 8.7671 40.9189 8.77455 40.9087 8.77999C40.8984 8.78542 40.8872 8.78872 40.8757 8.78969C40.8642 8.79066 40.8526 8.78927 40.8416 8.78562C40.8306 8.78196 40.8205 8.77612 40.8118 8.76843C40.7093 8.68681 40.6091 8.64542 40.5262 8.79717Z" fill="#210401"/>
<path d="M44.4525 12.3818C44.445 12.3817 44.4375 12.3831 44.4306 12.3859C44.4236 12.3888 44.4174 12.393 44.4122 12.3984C44.407 12.4039 44.4029 12.4103 44.4004 12.4173C44.3978 12.4244 44.3967 12.4319 44.3972 12.4393C44.3108 12.452 44.2682 12.3956 44.2279 12.3336C44.2912 12.2278 44.4006 12.1289 44.2993 11.9887C44.1979 11.8484 44.2451 11.7852 44.4145 11.7679C44.5181 11.7576 44.5181 11.6806 44.4675 11.607C44.45 11.5747 44.4231 11.5487 44.3903 11.5322C44.206 11.4736 44.0562 11.3023 43.8293 11.377C43.7929 11.3848 43.7548 11.38 43.7215 11.3633C43.6882 11.3465 43.6616 11.3189 43.6462 11.2851C43.6139 11.2241 43.6623 11.1862 43.7095 11.1529C43.804 11.085 43.774 11.0206 43.7095 10.9482C43.6174 10.8459 43.4791 10.7666 43.3732 10.8034C43.2038 10.862 43.0967 10.7528 42.9608 10.7286H42.6302C42.6175 10.5895 42.6544 10.493 42.8214 10.5102C42.8394 10.512 42.8576 10.512 42.8756 10.5102C42.8987 10.5098 42.9212 10.5028 42.9405 10.4902C42.9599 10.4776 42.9753 10.4598 42.985 10.4389C43.0057 10.386 42.9596 10.363 42.9262 10.324C42.8563 10.246 42.7618 10.1941 42.6583 10.177C42.5549 10.1598 42.4487 10.1784 42.3572 10.2297H42.242C42.242 10.1653 42.242 10.1009 42.242 10.0377C42.242 9.95032 42.3872 9.89053 42.3008 9.79281C42.238 9.72587 42.1677 9.66646 42.0911 9.61576C42.007 9.55952 41.9099 9.5255 41.8089 9.51689C41.7041 9.50425 41.6477 9.4985 41.6626 9.35594C41.6677 9.28527 41.6473 9.21511 41.605 9.15817C41.5628 9.10124 41.5015 9.06128 41.4323 9.04553C41.2019 9.01564 40.9922 8.85354 40.7411 8.90527C40.6965 8.91393 40.6503 8.90729 40.6099 8.88642C40.5696 8.86555 40.5375 8.83168 40.5188 8.79031C40.6018 8.63855 40.702 8.67534 40.8102 8.76157C40.8189 8.76925 40.829 8.7751 40.84 8.77875C40.851 8.78241 40.8626 8.78379 40.8741 8.78283C40.8856 8.78186 40.8968 8.77856 40.9071 8.77312C40.9173 8.76769 40.9263 8.76024 40.9335 8.75122C40.947 8.73289 40.9536 8.71039 40.9522 8.68767C40.9507 8.66495 40.9412 8.64348 40.9254 8.62706C40.8917 8.56741 40.8406 8.51948 40.7788 8.48968C40.717 8.45989 40.6476 8.44965 40.5799 8.46035C40.5564 8.41512 40.5166 8.38046 40.4684 8.36339C40.4203 8.34632 40.3675 8.3481 40.3207 8.36838C40.2262 8.38633 40.129 8.38478 40.0351 8.36383C39.9412 8.34287 39.8526 8.30294 39.7747 8.24652C39.6918 8.19593 39.7021 8.12121 39.7931 8.08787C39.8346 8.07292 39.8841 8.07752 39.9291 8.06602C40.0327 8.04073 40.0327 7.9752 39.9809 7.90162C39.9521 7.85985 39.9103 7.82876 39.862 7.81316C39.8136 7.79757 39.7615 7.79835 39.7137 7.81539C39.5363 7.85333 39.4914 7.8154 39.4315 7.65444C39.4222 7.628 39.4222 7.59926 39.4142 7.57282C39.3707 7.42246 39.2818 7.28916 39.1596 7.19113C39.0536 7.10031 38.9361 7.16354 38.814 7.17044C38.6765 7.18141 38.5386 7.15436 38.4155 7.09226C38.3487 7.05777 38.2588 7.00144 38.2865 6.90601C38.3084 6.82899 38.4017 6.86578 38.457 6.85773C38.4846 6.85773 38.5123 6.85773 38.5399 6.85773C38.5584 6.85735 38.5763 6.85097 38.5908 6.83957C38.6053 6.82816 38.6158 6.81234 38.6205 6.7945C38.6259 6.77244 38.6238 6.74923 38.6147 6.72846C38.6055 6.70768 38.5898 6.69049 38.5698 6.67953C38.5164 6.64293 38.4546 6.62039 38.3902 6.614C38.1598 6.62435 37.949 6.49903 37.7209 6.47949C37.6311 6.47949 37.5366 6.45075 37.547 6.34728C37.5585 6.22311 37.6622 6.2691 37.7417 6.27715C37.843 6.2875 37.8891 6.21622 37.8442 6.12999C37.833 6.10447 37.8147 6.08273 37.7913 6.06742C37.768 6.05211 37.7408 6.04389 37.7129 6.04377C37.5735 6.04377 37.5527 5.89546 37.4583 5.85522C37.3431 5.80464 37.2533 5.97019 37.1254 5.9288C37.107 5.92705 37.0885 5.92705 37.0701 5.9288C37.0423 5.92891 37.0153 5.91999 36.9931 5.90339C36.9708 5.8868 36.9546 5.86344 36.9469 5.83683C36.9438 5.80948 36.9475 5.7818 36.9575 5.75617C36.9675 5.73054 36.9836 5.70772 37.0045 5.68967C37.0505 5.63564 37.1634 5.68967 37.1749 5.57471C37.1565 5.54662 37.1348 5.52077 37.1104 5.49768C36.9519 5.38504 36.7612 5.32657 36.5667 5.33098C36.3214 5.33098 36.2937 5.28269 36.3893 5.05851C36.4262 4.97573 36.4204 4.92055 36.341 4.87456C36.2615 4.82858 36.1901 4.7412 36.1325 4.7596C35.9251 4.80558 35.7489 4.63428 35.5485 4.69981C35.5341 4.70746 35.5181 4.71175 35.5018 4.71238C35.4855 4.713 35.4693 4.70993 35.4543 4.70341C35.4393 4.69689 35.4261 4.68707 35.4154 4.67471C35.4048 4.66234 35.3971 4.64773 35.393 4.63198C35.3864 4.6145 35.3838 4.59579 35.3854 4.5772C35.387 4.5586 35.3926 4.54058 35.402 4.52443C35.4113 4.50828 35.4242 4.49439 35.4395 4.48377C35.4549 4.47314 35.4724 4.46604 35.4909 4.46298C35.5269 4.45535 35.5635 4.45074 35.6003 4.44919C35.6498 4.44919 35.6902 4.42275 35.6936 4.36871C35.6968 4.34544 35.6916 4.32178 35.679 4.30198C35.6663 4.28218 35.647 4.26752 35.6245 4.26064C35.4471 4.22615 35.3008 4.08704 35.1015 4.12038C35.0011 4.13532 34.899 4.13532 34.7986 4.12038C34.7515 4.11928 34.7065 4.10041 34.6727 4.06756C34.639 4.03472 34.6189 3.99034 34.6166 3.94334C34.6166 3.83527 34.7168 3.86056 34.7848 3.84906C34.8527 3.83757 34.9 3.82032 34.908 3.75824C34.923 3.67777 34.8574 3.64328 34.7928 3.62258C34.5567 3.54785 34.3402 3.39265 34.0695 3.45933C33.9819 3.47887 33.8644 3.45933 33.8564 3.34436C33.8483 3.25124 33.9508 3.25124 34.0234 3.24549H34.051C34.1052 3.24549 34.1662 3.25124 34.1904 3.18341C34.1996 3.14685 34.1942 3.10813 34.1753 3.0755C34.1563 3.04287 34.1254 3.0189 34.089 3.00866C33.8449 2.91324 33.6007 2.80747 33.3288 2.83621C33.2643 2.84311 33.194 2.8776 33.1745 2.78563C33.1572 2.7109 33.2113 2.67066 33.2793 2.64882C33.3069 2.64523 33.3342 2.63985 33.3611 2.63272C33.4931 2.57984 33.5047 2.50741 33.3956 2.41544C33.3392 2.36715 33.262 2.30047 33.2021 2.32461C33.0397 2.39244 32.9176 2.28783 32.7805 2.25334C32.5939 2.2062 32.5859 2.18666 32.7033 2.0234C32.7817 1.91419 32.7529 1.8521 32.6481 1.81072C32.4499 1.73254 32.2656 1.58078 32.0272 1.69575C31.9903 1.71529 31.9362 1.69575 31.8901 1.7038C31.8674 1.70859 31.844 1.70864 31.8212 1.70395C31.7985 1.69926 31.777 1.68993 31.7581 1.67654C31.7391 1.66315 31.7232 1.64599 31.7112 1.62615C31.6993 1.60631 31.6915 1.58421 31.6885 1.56124C31.6724 1.46467 31.753 1.44627 31.8245 1.41983C31.8959 1.39339 31.9638 1.38994 31.9684 1.31176C31.9731 1.23359 31.8947 1.1968 31.8417 1.14391C31.7801 1.1019 31.7045 1.08541 31.6309 1.09793H31.2992C31.2071 1.09793 31.1356 1.06114 31.1207 0.961117C31.1057 0.861096 31.1656 0.839253 31.2451 0.81396C31.3695 0.773722 31.328 0.698994 31.2693 0.624266C31.2284 0.587292 31.1801 0.559462 31.1276 0.54264C31.0547 0.514186 30.9897 0.468611 30.9381 0.409774C30.8866 0.350938 30.85 0.280573 30.8315 0.20464L30.9652 0C30.9687 0.00556895 30.9742 0.00967611 30.9805 0.0115749C30.9869 0.0134738 30.9937 0.0130382 30.9997 0.010347C31.0066 0.0425375 31.0331 0.0459863 31.0585 0.0528843C31.586 0.495504 32.1124 0.940422 32.6423 1.38189L44.9996 11.6909C44.9927 11.7794 44.9213 11.8289 44.8706 11.8898C44.7416 12.037 44.5965 12.2094 44.4525 12.3818Z" fill="#210401"/>
<path d="M40.7275 9.41115C40.4589 9.21966 40.2016 9.01276 39.9569 8.79148C36.8169 6.17562 33.6792 3.55861 30.5438 0.940448C30.4804 0.887564 30.4194 0.825481 30.3491 0.770298C30.4993 0.560605 30.6652 0.36267 30.8456 0.178223C30.8641 0.254156 30.9007 0.324521 30.9522 0.383357C31.0037 0.442194 31.0687 0.487769 31.1416 0.516223C31.1941 0.533045 31.2424 0.560876 31.2833 0.597849C31.342 0.669128 31.4077 0.806932 31.2833 0.84717C31.2038 0.872462 31.1197 0.841577 31.1347 0.934699C31.1497 1.02782 31.2211 1.06921 31.3132 1.07151H31.645C31.7186 1.05899 31.7941 1.07548 31.8558 1.1175C31.9088 1.16463 31.9882 1.20257 31.9825 1.28535C31.9767 1.36812 31.9145 1.43219 31.8558 1.45288C31.797 1.47358 31.6864 1.43825 31.7026 1.53482C31.7048 1.5583 31.712 1.58103 31.7237 1.60155C31.7353 1.62206 31.7512 1.6399 31.7702 1.65389C31.7892 1.66788 31.811 1.67772 31.8341 1.68276C31.8571 1.68779 31.881 1.68792 31.9042 1.68313C31.9502 1.68313 32.0044 1.69463 32.0412 1.67508C32.2797 1.56012 32.464 1.71187 32.6621 1.79005C32.7669 1.83144 32.7957 1.89352 32.7174 2.00273C32.6022 2.16714 32.608 2.18668 32.7946 2.23267C32.9316 2.26716 33.0537 2.37178 33.2161 2.30395C33.276 2.2798 33.3532 2.34648 33.4097 2.39477C33.5195 2.48674 33.4979 2.65848 33.3651 2.71136C33.3382 2.71849 33.3927 2.70777 33.3651 2.71136C33.2971 2.73091 33.1712 2.69023 33.1885 2.76496C33.2081 2.85693 33.2783 2.82244 33.3429 2.81554C33.6147 2.7868 33.8589 2.89257 34.1031 2.98799C34.1394 2.99823 34.1704 3.02221 34.1893 3.05484C34.2082 3.08747 34.2137 3.12618 34.2045 3.16274C34.1837 3.23057 34.181 3.41028 34.0835 3.28578L34.0031 3.34933C33.9305 3.34933 33.8623 3.22482 33.8704 3.32369C33.8785 3.43866 33.996 3.45935 34.0835 3.43866C34.3542 3.37428 34.5707 3.52719 34.8069 3.60191C34.8668 3.62146 34.9324 3.6571 34.9221 3.73757C34.9106 3.79965 34.8633 3.88339 34.8069 3.89259C34.7504 3.90179 34.6295 3.8146 34.6306 3.92267C34.6334 3.9685 34.6531 4.01168 34.6858 4.04394C34.7186 4.07619 34.7621 4.09523 34.808 4.09742C34.9085 4.11236 35.0106 4.11236 35.111 4.09742C35.3103 4.06408 35.4565 4.20319 35.6339 4.23768C35.6564 4.24456 35.6758 4.25921 35.6884 4.27901C35.7011 4.29882 35.7063 4.32247 35.703 4.34574C35.703 4.39978 35.6835 4.46507 35.6339 4.46967C35.5971 4.47122 35.5473 4.47492 35.5112 4.48255C35.4928 4.48561 35.4791 4.50091 35.4637 4.51153C35.4484 4.52215 35.4478 4.53808 35.4385 4.55423C35.4291 4.57039 35.3964 4.53564 35.3948 4.55423C35.3933 4.57283 35.3959 4.59154 35.4024 4.60902C35.4066 4.62476 35.4143 4.63937 35.4249 4.65174C35.4355 4.66411 35.4488 4.67392 35.4637 4.68044C35.4787 4.68697 35.4949 4.69003 35.5112 4.68941C35.5275 4.68879 35.5435 4.68449 35.5579 4.67685C35.7583 4.61132 35.9346 4.78261 36.1419 4.73663C36.1995 4.72398 36.2801 4.81595 36.3504 4.85159C36.4207 4.88723 36.4356 4.95276 36.3988 5.03554C36.3032 5.26547 36.3308 5.30341 36.5762 5.30801C36.7707 5.3036 36.9614 5.36207 37.1199 5.47471C37.1443 5.4978 37.1659 5.52365 37.1844 5.55174C37.1728 5.6667 37.0795 5.6934 37.0334 5.74168C37.0126 5.75974 36.977 5.70758 36.9669 5.73321C36.9569 5.75884 36.9532 5.78651 36.9563 5.81386C36.964 5.84047 36.9803 5.86383 37.0025 5.88043C37.0247 5.89702 37.0518 5.90594 37.0795 5.90583C37.0979 5.90408 37.1164 5.90408 37.1348 5.90583C37.2627 5.94837 37.3514 5.78167 37.4677 5.83225C37.5622 5.87249 37.5829 6.02425 37.7223 6.0208C37.7502 6.02093 37.7775 6.02914 37.8008 6.04445C37.8241 6.05976 37.8424 6.0815 37.8536 6.10702C37.8985 6.19325 37.9106 6.50511 37.8308 6.37965C37.7511 6.50511 37.5679 6.20015 37.5564 6.32431C37.546 6.42778 37.6405 6.45077 37.7303 6.45652C37.9607 6.47147 38.1635 6.60138 38.3996 6.59103C38.4641 6.59743 38.5259 6.61997 38.5793 6.65656C38.5992 6.66752 38.6149 6.68472 38.6241 6.70549C38.6333 6.72627 38.6353 6.74947 38.63 6.77153C38.6252 6.78937 38.6428 6.84671 38.6283 6.85812C38.6137 6.86952 38.6468 6.85774 38.6283 6.85812C38.6006 6.85812 38.4964 6.85812 38.4688 6.85812C38.3996 6.90547 38.3093 6.85812 38.3093 6.85812C38.3093 7.01761 38.3581 7.0348 38.4249 7.06929C38.5481 7.13139 38.686 7.15844 38.8235 7.14747C38.9387 7.14057 39.0539 7.07734 39.169 7.16816C39.2912 7.2662 39.3801 7.39949 39.4236 7.54985C39.4317 7.57629 39.4317 7.60503 39.4409 7.63147C39.5008 7.79818 39.5457 7.83037 39.7231 7.79243C39.7709 7.77539 39.8231 7.7746 39.8714 7.79019C39.9197 7.80579 39.9615 7.83689 39.9903 7.87865C40.0422 7.95223 40.094 8.06514 39.9903 8.09043C39.9454 8.10193 39.9457 8.1191 39.9042 8.13404C39.8132 8.16738 39.7012 8.17296 39.7841 8.22355C39.862 8.27998 39.9506 8.3199 40.0445 8.34086C40.1384 8.36181 40.2356 8.36337 40.3301 8.34541C40.377 8.32514 40.4298 8.32335 40.4779 8.34042C40.526 8.3575 40.5658 8.39215 40.5893 8.43739C40.5893 8.52706 40.5882 8.54928 40.5422 8.61251C40.4961 8.67575 40.4545 8.75699 40.534 8.76734C40.5527 8.80871 40.5848 8.84258 40.6251 8.86345C40.6655 8.88432 40.7117 8.89096 40.7563 8.8823C40.7583 8.91411 40.767 8.94514 40.7816 8.97344C40.7963 9.00175 40.8167 9.0267 40.8416 9.04671C40.9568 9.14788 40.9222 9.2341 40.8185 9.31573L40.7275 9.41115Z" fill="#210401"/>
<path d="M43.2352 11.5012C43.0918 11.411 42.9605 11.3029 42.8447 11.1793C42.8655 11.1644 42.8862 11.1391 42.9092 11.1356C43.082 11.1161 43.0843 11.1161 43.0244 10.9632C42.9863 10.8922 42.9646 10.8137 42.9611 10.7332C43.097 10.7574 43.2437 10.7445 43.413 10.6859C43.5167 10.6491 43.6399 10.743 43.732 10.8454C43.7965 10.9178 43.8042 11.0896 43.7098 11.1575C43.732 11.1643 43.6244 11.1847 43.6567 11.2457C43.6721 11.2795 43.6987 11.3071 43.732 11.3238C43.7653 11.3406 43.7921 11.3596 43.8286 11.3518C44.0589 11.2747 44.2304 11.4648 44.4147 11.5234C44.4475 11.5398 44.5121 11.6106 44.5295 11.6428C44.5802 11.7164 44.5184 11.7622 44.4147 11.7725C44.2477 11.7898 44.2617 11.81 44.37 11.9618C44.4783 12.1136 44.2915 12.2313 44.2281 12.3382C43.9752 12.1533 43.7343 11.9525 43.5071 11.7369C43.5554 11.6622 43.5876 11.6578 43.6567 11.6428C43.7258 11.6279 43.7835 11.6081 43.7524 11.5645C43.6766 11.4597 43.5667 11.3845 43.4414 11.3518C43.3239 11.3173 43.3066 11.4552 43.2352 11.5012Z" fill="#210401"/>
<path d="M40.7275 9.41118L40.7017 9.25051C40.8053 9.16888 40.9429 9.17435 40.8335 9.07318C40.8087 9.05317 40.7883 9.02822 40.7736 8.99992C40.7589 8.97162 40.7037 8.80384 40.7017 8.77204C40.9493 8.7203 41.201 9.02375 41.4394 9.04904C41.5086 9.06479 41.5699 9.10474 41.6121 9.16168C41.6544 9.21862 41.6748 9.28877 41.6698 9.35945C41.6548 9.502 41.7112 9.50775 41.8161 9.5204C41.917 9.52901 42.0141 9.56302 42.0983 9.61927C42.1756 9.66759 42.2471 9.72469 42.3114 9.78942C42.3978 9.88714 42.2526 9.94692 42.2526 10.0343C42.2526 10.0975 42.2526 10.1619 42.2526 10.2263C41.9776 10.3669 41.6978 10.0704 41.6586 9.72898C41.6565 9.70341 41.6706 9.7517 41.6586 9.72898C41.6206 9.72898 41.519 9.74527 41.4991 9.72898C41.4792 9.71269 41.5238 9.57678 41.4991 9.56949C41.4745 9.5622 41.5018 9.57158 41.4763 9.57443C41.3403 9.58708 41.1549 9.47441 41.0858 9.7009C40.9492 9.62761 40.8277 9.52932 40.7275 9.41118Z" fill="#210401"/>
<path d="M41.0742 9.70087C41.1433 9.47093 41.3288 9.5859 41.4647 9.5744C41.4903 9.57155 41.5161 9.57383 41.5408 9.58113C41.5654 9.58842 41.5884 9.60057 41.6082 9.61686C41.6281 9.63315 41.6445 9.65325 41.6564 9.67597C41.6684 9.6987 41.6757 9.72358 41.6778 9.74915C41.717 10.0941 41.9416 10.1998 42.2411 10.2263H42.3563C42.371 10.2465 42.3816 10.2694 42.3874 10.2937C42.3933 10.318 42.3942 10.3432 42.3903 10.3679C42.3863 10.3926 42.3775 10.4162 42.3643 10.4375C42.3512 10.4588 42.334 10.4772 42.3136 10.4918C42.2604 10.5252 42.2161 10.5709 42.1846 10.6252C41.7985 10.3368 41.4278 10.0282 41.0742 9.70087Z" fill="#210401"/>
<path d="M42.1821 10.6263C42.2136 10.572 42.2579 10.5263 42.3111 10.4929C42.3315 10.4783 42.3487 10.4598 42.3618 10.4386C42.375 10.4173 42.3838 10.3936 42.3878 10.369C42.3917 10.3443 42.3908 10.3191 42.3849 10.2948C42.3791 10.2705 42.3685 10.2475 42.3538 10.2273C42.4453 10.1758 42.5518 10.157 42.6555 10.1742C42.7592 10.1913 42.8539 10.2433 42.9239 10.3216C42.9573 10.355 43.0273 10.3799 43.0066 10.4386C42.9969 10.4595 42.9674 10.4953 42.948 10.5079C42.9287 10.5205 42.8964 10.5074 42.8733 10.5079C42.8553 10.5096 42.7928 10.5281 42.7748 10.5263C42.6078 10.5091 42.7748 10.5263 42.6279 10.7263C42.6153 10.8453 42.5335 10.8413 42.4482 10.8413C42.3464 10.7874 42.2561 10.7144 42.1821 10.6263Z" fill="#210401"/>
<path d="M42.4482 10.8461C42.5335 10.8461 42.5703 10.7702 42.6279 10.7311L42.7748 10.686L42.9585 10.7311C42.9621 10.8115 43.0557 10.9341 43.0938 11.005C43.156 11.1579 43.1094 11.145 42.9343 11.1645C42.962 11.1955 42.8629 11.1622 42.8422 11.1772C42.6952 11.0868 42.5625 10.9752 42.4482 10.8461Z" fill="#210401"/>
<path d="M43.2354 11.5011C43.3068 11.4506 43.3287 11.3172 43.4415 11.3471C43.5668 11.3798 43.6768 11.455 43.7525 11.5598C43.7836 11.6035 43.7652 11.6483 43.7065 11.6609C43.6477 11.6736 43.5556 11.6609 43.5072 11.7322C43.4016 11.6747 43.3091 11.596 43.2354 11.5011Z" fill="#210401"/>
</g>
<g filter="url(#filter2_di_5126_16138)">
<path d="M37.377 14.5387C37.3977 14.2214 37.453 14.1478 37.7064 14.0938C37.5774 14.2283 37.5244 14.4191 37.377 14.5387Z" fill="#210401"/>
<path d="M32.6738 3.57227L40.684 10.1253C40.7992 10.2242 40.9881 10.3001 41.01 10.4449C41.0318 10.5898 40.8499 10.6967 40.7542 10.814C39.4572 12.3913 38.1587 13.969 36.8586 15.5471C36.824 15.5897 36.7952 15.6368 36.7641 15.6816L36.6559 15.7115C36.5499 15.6449 36.7273 15.6046 36.6708 15.5425C36.7688 15.5207 36.7757 15.4276 36.816 15.3597C36.9404 15.1539 36.9807 14.9114 37.0878 14.6975C37.218 14.7067 37.3481 14.7159 37.3769 14.5389C37.5244 14.4239 37.5774 14.2285 37.7064 14.094C37.8122 14.037 37.894 13.944 37.9368 13.8318C37.9602 13.7573 37.9995 13.6887 38.052 13.6308C38.1045 13.5728 38.1689 13.5269 38.2409 13.4961C38.2811 13.4841 38.3178 13.4626 38.3479 13.4334C38.378 13.4042 38.4005 13.3681 38.4136 13.3283C38.4586 13.1351 38.6072 13.0236 38.7246 12.8834C39.0045 12.5488 39.2741 12.2051 39.5459 11.8648C39.721 11.644 39.9687 11.4819 40.0781 11.2083C40.0862 11.1914 40.1001 11.1779 40.1173 11.1704C40.32 11.0715 40.4202 10.8841 40.5285 10.7025C40.6506 10.4978 40.6114 10.3127 40.381 10.2231C40.214 10.1474 40.0651 10.0369 39.9445 9.89885C39.8176 9.7668 39.6748 9.65095 39.5194 9.55395C39.3651 9.47217 39.2303 9.35804 39.1243 9.2194C39.0359 9.10224 38.9226 9.00606 38.7926 8.93773C38.447 8.74459 38.1694 8.45717 37.8792 8.19965C37.5509 7.90764 37.2088 7.63057 36.8609 7.3696C36.4808 7.08448 36.1214 6.77292 35.7563 6.47171C35.2633 6.06703 34.7679 5.66695 34.2796 5.25192C34.1747 5.1634 34.0734 5.06912 33.9662 4.98405C33.6149 4.70698 33.2429 4.45635 32.9296 4.13445C32.832 4.03577 32.7073 3.96816 32.5713 3.94016C32.4734 3.90452 32.4089 4.02063 32.3145 3.99994C32.4262 3.85278 32.5149 3.68263 32.6738 3.57227Z" fill="#210401"/>
<path d="M32.3099 3.99876C32.4043 4.01945 32.4688 3.90334 32.5667 3.93898C32.5852 4.05199 32.5657 4.16792 32.5113 4.26875C32.457 4.36958 32.3708 4.44966 32.2661 4.49656C32.1509 4.55749 32.0518 4.65406 32.0933 4.80237C32.1302 4.92998 32.0622 4.95757 31.9678 4.99896C31.8169 5.06564 31.6579 5.14842 31.6395 5.33581C31.6245 5.49332 31.5819 5.57724 31.4091 5.61403C31.2363 5.65082 31.1787 5.79683 31.2548 5.95893C31.3031 6.06585 31.2548 6.11183 31.1833 6.16242C31.1271 6.19544 31.0611 6.20765 30.9967 6.19691C30.8458 6.19691 30.7733 6.31188 30.6869 6.40155C30.6005 6.49122 30.6719 6.56365 30.7099 6.64758C30.7606 6.76254 30.6719 6.79818 30.5832 6.80163C30.4812 6.80342 30.3824 6.83792 30.3015 6.90002C30.2206 6.96213 30.1619 7.04855 30.134 7.14653C30.0748 7.2925 29.9718 7.4166 29.8391 7.50177C29.7032 7.58915 29.588 7.68227 29.5719 7.85932C29.5639 7.89228 29.5482 7.92285 29.5259 7.94846C29.5037 7.97407 29.4756 7.99397 29.444 8.00648C29.1779 8.16283 29.0305 8.41231 28.9095 8.68363H28.4292V8.63074C28.5585 8.53316 28.6669 8.41083 28.7483 8.2709C29.1053 7.81103 29.4809 7.35117 29.8621 6.91315C30.688 5.95433 31.4736 4.95643 32.3099 3.99876Z" fill="#210401"/>
<path d="M28.8994 8.68374C29.0204 8.41242 29.1678 8.16294 29.4339 8.00659C29.4638 7.9938 29.4905 7.97428 29.5116 7.94955C29.5328 7.92483 29.548 7.89557 29.556 7.86403C29.5721 7.68699 29.6873 7.59386 29.8232 7.50649C29.9559 7.42132 30.0589 7.29722 30.1181 7.15124C30.146 7.05326 30.2047 6.96684 30.2856 6.90474C30.3665 6.84263 30.4653 6.80813 30.5673 6.80634C30.656 6.80634 30.7447 6.76496 30.694 6.65229C30.656 6.56836 30.5869 6.49479 30.671 6.40626C30.7551 6.31774 30.83 6.19932 30.9809 6.20162C31.0452 6.21236 31.1112 6.20015 31.1675 6.16713C31.2354 6.11655 31.2826 6.07056 31.2389 5.96364C31.1629 5.79579 31.2158 5.65094 31.3932 5.61874C31.5706 5.58655 31.6109 5.50378 31.6236 5.34053C31.642 5.15313 31.801 5.07036 31.9519 5.00368C32.0463 4.96229 32.1143 4.9347 32.0774 4.80708C32.036 4.65878 32.135 4.56221 32.2502 4.50127C32.3555 4.45494 32.4425 4.3751 32.4975 4.27422C32.5525 4.17334 32.576 3.94154 32.5578 3.82812C32.6938 3.85613 32.9387 4.04843 33.0362 4.14711C33.3542 4.46901 33.6476 4.66979 33.9932 4.94456C34.1003 5.02963 34.2073 5.01553 34.3122 5.10405C34.8006 5.51563 35.2645 5.97529 35.7575 6.37997C36.2542 6.60369 36.4938 7.0518 36.8739 7.33692C37.2195 7.59789 37.6533 7.84236 37.9804 8.13437C38.2707 8.39189 38.4289 8.73868 38.7779 8.93182C38.9079 9.00015 39.0085 8.97416 39.0969 9.09131C39.2029 9.22996 39.431 9.488 39.5853 9.56979C39.7407 9.66678 39.927 9.75672 40.0538 9.88877C40.1744 10.0268 40.3652 10.1321 40.5323 10.2077C40.7627 10.2974 40.6643 10.6411 40.5422 10.8457C40.4339 11.0274 40.303 11.075 40.1003 11.1739C40.2232 11.3242 40.1003 11.3242 40.0611 11.2118C40.0638 11.4837 39.7604 11.7414 39.5853 11.9621C39.3134 12.307 39.0677 12.5845 38.7878 12.9191C38.6726 13.0593 38.5038 13.2044 38.4589 13.3976C38.4458 13.4374 38.361 13.4077 38.3309 13.4369C38.3008 13.4661 38.2641 13.4877 38.2239 13.4997C38.1519 13.5304 38.1399 13.7165 37.9804 13.7165C37.9804 13.876 37.9639 13.7716 37.9405 13.8461C37.8977 13.9583 37.7952 14.0405 37.6894 14.0975C37.6998 14.0032 37.6352 13.9549 37.5811 13.8906C37.5534 13.8594 37.5344 13.8215 37.5259 13.7807C37.5174 13.7399 37.4891 13.7562 37.502 13.7165C37.5149 13.6769 37.4711 13.585 37.502 13.557C37.5329 13.5291 37.6486 13.4459 37.6894 13.4369C37.732 13.4243 37.8011 13.4645 37.8449 13.4542C37.8887 13.4439 37.9486 13.4353 37.9405 13.3663C37.9359 13.3436 37.9242 13.323 37.9069 13.3075C37.8897 13.2919 37.868 13.2823 37.8449 13.2801C37.8092 13.272 37.7712 13.2801 37.7355 13.2697C37.5258 13.2387 37.3591 13.0674 37.502 12.9191C37.6229 12.8041 37.6756 12.7443 37.5892 12.6317C37.4648 12.4684 37.5212 12.286 37.7228 12.2527C37.7611 12.2502 37.7826 12.1191 37.821 12.1216C37.8958 12.1216 38.0223 12.273 38.0511 12.1948C38.0799 12.1166 37.99 12.0522 37.9359 11.9971C37.8817 11.9419 37.7861 11.9499 37.7147 12.0086C37.6433 12.0672 37.5857 12.0741 37.5396 12.0189C37.4671 11.9304 37.353 11.8476 37.3841 11.7142C37.4118 11.5993 37.411 11.5567 37.502 11.551C37.5203 11.5516 37.6511 11.6091 37.6686 11.6039C37.6686 11.551 37.7228 11.5843 37.7228 11.551C37.7226 11.5327 37.7167 11.5149 37.706 11.5001C37.6953 11.4853 37.6802 11.4742 37.6629 11.4682C37.618 11.4475 37.5742 11.4682 37.5293 11.4751C37.4209 11.4853 37.3119 11.4628 37.2164 11.4105C37.1209 11.3583 37.0434 11.2786 36.9936 11.182C36.9331 11.0279 36.84 10.8887 36.7207 10.7738C36.655 10.7094 36.5801 10.6439 36.5951 10.5439C36.6216 10.3599 36.5294 10.276 36.3647 10.2404C36.2753 10.22 36.1912 10.1808 36.1182 10.1254C36.0768 10.0885 36.0282 10.0605 35.9755 10.0429C35.9229 10.0253 35.8672 10.0186 35.8118 10.0231C35.246 9.55817 34.5887 9.21703 33.8824 9.02174C33.8824 8.9986 33.8773 8.97575 33.8676 8.95475C33.8579 8.93374 33.8437 8.91507 33.8261 8.90001C33.8085 8.88496 33.7879 8.87387 33.7656 8.86749C33.7433 8.86112 33.7199 8.85962 33.697 8.86309C33.5867 8.86358 33.477 8.8465 33.3722 8.8125C33.1278 8.73686 32.8735 8.69811 32.6177 8.69754L28.8994 8.68374Z" fill="#210401"/>
<path d="M35.8208 10.015C35.8762 10.0105 35.9319 10.0172 35.9845 10.0348C36.0372 10.0524 36.0857 10.0805 36.1272 10.1174C36.2002 10.1728 36.2843 10.212 36.3737 10.2323C36.5396 10.268 36.6317 10.3473 36.6041 10.5358C36.5891 10.6393 36.664 10.7048 36.7296 10.7658C36.849 10.8806 36.9421 11.0198 37.0026 11.1739C37.0523 11.2706 37.1299 11.3502 37.2254 11.4025C37.3209 11.4547 37.4298 11.4772 37.5382 11.4671C37.5832 11.4602 37.6269 11.4395 37.6719 11.4602C37.6892 11.4661 37.7043 11.4773 37.715 11.4921C37.7257 11.5069 37.7316 11.5247 37.7318 11.5429C37.7318 11.5763 37.7053 11.5889 37.6776 11.5958C37.6601 11.601 37.6418 11.6033 37.6235 11.6027C37.5325 11.6027 37.4208 11.5924 37.3931 11.7062C37.362 11.8396 37.476 11.9223 37.5486 12.0109C37.5947 12.066 37.6638 12.0454 37.7237 12.0005C37.7836 11.9557 37.8711 11.9177 37.9449 11.989C38.0186 12.0603 38.0981 12.0879 38.06 12.1868C38.022 12.2856 37.9449 12.2649 37.87 12.2649C37.8316 12.2624 37.7932 12.2624 37.7548 12.2649C37.5532 12.2983 37.4737 12.4604 37.5981 12.6236C37.6845 12.7386 37.7133 12.7972 37.5924 12.9168C37.4496 13.0605 37.5348 13.2261 37.7444 13.2617C37.7801 13.2674 37.8182 13.2617 37.8539 13.272C37.877 13.2743 37.8987 13.2839 37.9159 13.2994C37.9331 13.3149 37.9449 13.3356 37.9495 13.3583C37.9575 13.4261 37.9115 13.4583 37.8539 13.4732C37.7963 13.4882 37.7606 13.4732 37.7179 13.4905C37.6772 13.4994 37.6395 13.5189 37.6086 13.5468C37.5776 13.5748 37.5546 13.6104 37.5417 13.65C37.5287 13.6896 37.5264 13.7319 37.5349 13.7727C37.5434 13.8135 37.5624 13.8513 37.5901 13.8825C37.6442 13.9469 37.8311 14.0355 37.6716 14.195C37.4182 14.249 37.5121 14.514 37.3526 14.6735C37.3238 14.8505 37.21 14.7022 37.0798 14.693C37.2133 14.2001 37.275 13.6905 37.263 13.1801C37.1973 11.9798 36.8022 10.9256 35.8888 10.1036C35.8638 10.0759 35.841 10.0463 35.8208 10.015Z" fill="#210401"/>
<path d="M28.9093 8.68359H32.6264C32.8822 8.68417 33.1365 8.72292 33.3809 8.79856C33.4858 8.83256 33.5954 8.84964 33.7057 8.84915C33.7286 8.84567 33.752 8.84718 33.7743 8.85355C33.7966 8.85992 33.8172 8.87101 33.8348 8.88607C33.8524 8.90113 33.8666 8.9198 33.8763 8.9408C33.886 8.96181 33.8911 8.98466 33.8912 9.0078C33.6089 8.98825 33.336 8.90778 33.0514 8.89283C32.2716 8.8388 31.4895 8.86294 30.7097 8.848C29.9299 8.83305 29.1834 8.83535 28.4209 8.8296V8.73763C28.4233 8.72037 28.4276 8.70342 28.4336 8.68704L28.9093 8.68359Z" fill="#210401"/>
</g>
<g filter="url(#filter3_di_5126_16138)">
<path d="M34.6881 27.5614L34.141 27.7138C33.7917 27.8028 33.4382 27.874 33.0816 27.9273L32.6333 27.9735L32.5299 27.9804C32.413 27.971 32.2954 27.98 32.1814 28.007C32.1668 27.9978 32.1496 27.9936 32.1324 27.9951C32.1152 27.9965 32.099 28.0036 32.0862 28.0151L29.9047 28.0289C29.6463 28.0133 29.3872 28.0133 29.1288 28.0289C28.1267 28.0243 27.1243 28.0197 26.1215 28.0151C25.5407 28.0151 24.9703 28.0151 24.3942 28.0151C23.818 28.0151 23.8227 28.0151 23.8238 27.4551C23.8238 24.2719 23.8238 21.0886 23.8238 17.9053C23.8238 15.22 23.8238 12.5346 23.8238 9.84932C23.8238 9.75696 23.8343 9.66576 23.8389 9.5734C23.8831 9.5734 23.9249 9.56763 23.9388 9.51567L23.99 9.49951L31.8376 9.51798C31.9671 9.50558 32.0978 9.51892 32.2221 9.55724C32.2437 9.58161 32.2706 9.60074 32.3008 9.61315C32.331 9.62556 32.3637 9.63092 32.3963 9.62881C32.7006 9.64829 33.0011 9.70609 33.2907 9.80083C34.1063 9.97801 34.8514 10.39 35.4329 10.9854C36.0144 11.5808 36.4066 12.3333 36.5606 13.1488C36.6534 13.6006 36.678 14.0636 36.6337 14.5227C36.6201 14.7894 36.5672 15.0527 36.4769 15.3042C36.3886 15.5155 36.3492 15.7453 36.2446 15.9507C36.2238 15.9816 36.2099 16.0165 36.2039 16.0532C36.1979 16.0898 36.1999 16.1274 36.2098 16.1632C36.1459 16.1782 36.1412 16.2232 36.1528 16.2786C36.0974 16.2998 36.0507 16.3388 36.0202 16.3895C35.9897 16.4401 35.9771 16.4994 35.9844 16.558C35.9438 16.558 35.9252 16.5753 35.9263 16.6157C35.8009 16.6157 35.7951 16.6908 35.8102 16.7843C35.7926 16.7908 35.7775 16.8027 35.7671 16.8182C35.7566 16.8338 35.7514 16.8522 35.7521 16.8709C35.5465 17.186 35.2387 17.3869 34.939 17.6028C34.7694 17.7263 34.5719 17.8118 34.4337 17.9757C34.4328 18.0127 34.4435 18.049 34.4643 18.0796C34.4851 18.1102 34.515 18.1336 34.5499 18.1466C34.6821 18.2133 34.8178 18.273 34.9564 18.3255C35.3059 18.446 35.6425 18.6007 35.9612 18.7873C36.5973 19.1709 37.1187 19.7166 37.4712 20.3678C37.7107 20.8357 37.8563 21.3454 37.8999 21.8686C37.987 22.6118 37.9366 23.3646 37.7512 24.0898C37.6122 24.6344 37.3783 25.1506 37.06 25.6149C36.8338 25.9188 36.5811 26.2023 36.305 26.4623C36.2365 26.5304 36.2081 26.6365 36.0472 26.7967C35.5647 27.117 35.6474 26.9147 35.4803 27.1261C35.4803 27.1261 35.4803 27.1434 35.4803 27.1527C35.4576 27.1457 35.4331 27.1474 35.4116 27.1574C35.3901 27.1675 35.3732 27.1851 35.3641 27.2069C35.351 27.21 35.3395 27.2179 35.3319 27.229C35.3244 27.2401 35.3214 27.2537 35.3235 27.267H35.3084C35.2735 27.2762 35.2236 27.26 35.2155 27.3178C35.2148 27.3203 35.2137 27.3226 35.212 27.3246C35.2104 27.3266 35.2084 27.3282 35.206 27.3293C35.2037 27.3304 35.2011 27.331 35.1985 27.331C35.196 27.331 35.1934 27.3304 35.1911 27.3293C35.1225 27.3189 35.0575 27.3178 35.0331 27.402L34.8008 27.5325C34.7566 27.5383 34.7102 27.5394 34.6846 27.5868L34.6881 27.5614ZM31.5205 16.1701V16.1597C31.5342 16.1564 31.5468 16.1495 31.557 16.1398C31.5672 16.13 31.5746 16.1178 31.5786 16.1043C31.6655 16.048 31.7341 15.9678 31.776 15.8734C31.9208 15.6259 32.0147 15.3524 32.0524 15.0686C32.0901 14.7849 32.0708 14.4965 31.9956 14.2202C31.8678 13.6822 31.5147 13.3566 30.971 13.2065C30.6577 13.1292 30.3367 13.0862 30.0139 13.0784C29.5713 13.0542 29.1265 13.008 28.6827 13.0622L28.5747 13.1223C28.3865 13.1431 28.4051 13.2954 28.4005 13.4155C28.3889 13.673 28.4005 13.9316 28.3935 14.189C28.3865 14.7766 28.4411 15.3666 28.3587 15.9531C28.3517 16.0027 28.3889 16.0362 28.426 16.0685L28.3947 16.1055C27.9539 16.0703 27.5103 16.1129 27.0844 16.2313C27.0716 16.207 27.0507 16.1724 27.0263 16.1851C26.8393 16.2798 26.6279 16.3156 26.4455 16.4414C26.278 16.5718 26.1246 16.7192 25.9879 16.8813C25.6634 17.2175 25.4551 17.6478 25.3931 18.1096C25.3296 18.5649 25.391 19.0288 25.5709 19.4523C25.7307 19.8786 26.0345 20.2365 26.4304 20.4648C26.7266 20.6333 27.0008 20.8504 27.3539 20.885C27.5919 20.9224 27.8321 20.9448 28.0729 20.952C28.246 20.952 28.3052 21.0028 28.3052 21.1563C28.3412 21.5748 28.3505 21.9951 28.3331 22.4147C28.289 22.9492 28.3099 23.4814 28.3099 24.0148C28.3099 24.4674 28.4156 24.5332 28.8756 24.5516C29.3355 24.5701 29.7816 24.5066 30.2346 24.5031C30.5959 24.5031 30.9583 24.4893 31.3195 24.4962C31.6122 24.502 31.8562 24.3808 32.1001 24.2468C32.1582 24.2157 32.1559 24.158 32.1431 24.1002C32.265 24.0781 32.3768 24.0183 32.4625 23.9294C32.486 23.9235 32.508 23.9128 32.5271 23.8979C32.5461 23.883 32.5617 23.8642 32.5729 23.8428L32.6205 23.8024C32.6515 23.787 32.6783 23.7643 32.6985 23.7364C32.7187 23.7084 32.7318 23.676 32.7366 23.6419V23.6477C32.7588 23.6412 32.7794 23.6303 32.7972 23.6156C32.815 23.6009 32.8296 23.5827 32.84 23.5622C33.0195 23.2624 33.1442 22.9332 33.2082 22.5902C33.372 21.5812 32.8853 20.6183 31.7458 20.3666C31.2481 20.2689 30.7419 20.2197 30.2346 20.22C29.4285 20.2004 28.62 20.22 27.8139 20.2004C27.3634 20.1915 26.9339 20.0095 26.6155 19.6927C26.2972 19.3758 26.1147 18.9487 26.1064 18.501C26.1013 18.084 26.2201 17.6748 26.4479 17.3246C26.4936 17.2974 26.53 17.2572 26.5524 17.2091L26.6569 17.1018C26.9099 16.9057 27.1936 16.7524 27.4968 16.6481C27.8537 16.6073 28.2132 16.5919 28.5724 16.6019C29.037 16.6019 29.5144 16.6019 29.9849 16.5857C30.2567 16.573 30.5366 16.5857 30.798 16.4899L30.9013 16.4772C30.9161 16.4802 30.9315 16.4788 30.9455 16.4733C30.9595 16.4677 30.9716 16.4583 30.9803 16.446C31.1451 16.4319 31.2976 16.3535 31.4043 16.2278L31.4659 16.207C31.4996 16.2094 31.5123 16.1943 31.5205 16.1701ZM28.519 18.9882V18.9986C28.8268 18.7573 28.7861 18.4213 28.7036 18.1189C28.613 17.7818 28.3459 17.5924 27.9939 17.5474C27.8098 17.5208 27.6371 17.4659 27.4702 17.5474L27.3622 17.556C27.3166 17.5468 27.3006 17.6138 27.2572 17.6304C27.2138 17.6469 27.176 17.6754 27.1483 17.7125C26.9956 17.8395 26.8857 18.0099 26.8333 18.2008C26.781 18.3917 26.7888 18.594 26.8556 18.7804C26.9318 19.0082 27.0914 19.1992 27.3027 19.3155C27.514 19.4318 27.7615 19.465 27.9962 19.4084C28.0237 19.4031 28.0487 19.3889 28.0672 19.368C28.0857 19.3471 28.1646 19.3433 28.1664 19.3155C28.2453 19.2682 28.2739 19.2306 28.3377 19.1579C28.3807 19.144 28.4376 19.1579 28.4539 19.0932C28.4922 19.069 28.5364 19.0459 28.519 18.9882Z" fill="#C97119"/>
</g>
<g filter="url(#filter4_di_5126_16138)">
<path d="M2.28977 28.4409V9.53183H8.90057C10.2178 9.53183 11.3042 9.75957 12.1598 10.2151C13.0154 10.6644 13.6525 11.2707 14.071 12.034C14.4896 12.7911 14.6989 13.6313 14.6989 14.5546C14.6989 15.3671 14.5542 16.038 14.2649 16.5673C13.9818 17.0967 13.6063 17.5153 13.1385 17.823C12.6768 18.1308 12.1752 18.3585 11.6335 18.5063V18.6909C12.2121 18.7278 12.7938 18.931 13.3786 19.3003C13.9633 19.6696 14.4527 20.199 14.8466 20.8884C15.2405 21.5778 15.4375 22.421 15.4375 23.4182C15.4375 24.3661 15.2221 25.2186 14.7912 25.9757C14.3603 26.7328 13.6802 27.333 12.7507 27.7761C11.8213 28.2193 10.6117 28.4409 9.12216 28.4409H2.28977ZM4.57955 26.4097H9.12216C10.6179 26.4097 11.6797 26.1204 12.3075 25.5418C12.9415 24.957 13.2585 24.2492 13.2585 23.4182C13.2585 22.778 13.0954 22.1871 12.7692 21.6455C12.4429 21.0976 11.9782 20.6606 11.375 20.3344C10.7718 20.002 10.0578 19.8358 9.23296 19.8358H4.57955V26.4097ZM4.57955 17.8415H8.82671C9.5161 17.8415 10.1378 17.7061 10.6918 17.4352C11.2519 17.1644 11.6951 16.7828 12.0213 16.2903C12.3537 15.7979 12.5199 15.2193 12.5199 14.5546C12.5199 13.7236 12.2306 13.0188 11.652 12.4402C11.0734 11.8555 10.1563 11.5631 8.90057 11.5631H4.57955V17.8415Z" fill="#210401"/>
</g>
<g filter="url(#filter5_di_5126_16138)">
<path d="M17.7647 28.0291H20.5882V5.74539H28.3529L29.9999 3.32324H1.76465V5.74539H13.0588C16.447 5.74539 17.7647 8.65196 17.7647 10.3475V28.0291Z" fill="#210401"/>
</g>
<defs>
<filter id="filter0_di_5126_16138" x="29.8491" y="0" width="15.1509" height="19.5" filterUnits="userSpaceOnUse" color-interpolation-filters="sRGB">
<feFlood flood-opacity="0" result="BackgroundImageFix"/>
<feColorMatrix in="SourceAlpha" type="matrix" values="0 0 0 0 0 0 0 0 0 0 0 0 0 0 0 0 0 0 127 0" result="hardAlpha"/>
<feOffset dx="-0.2" dy="0.2"/>
<feGaussianBlur stdDeviation="0.1"/>
<feComposite in2="hardAlpha" operator="out"/>
<feColorMatrix type="matrix" values="0 0 0 0 1 0 0 0 0 1 0 0 0 0 1 0 0 0 1 0"/>
<feBlend mode="normal" in2="BackgroundImageFix" result="effect1_dropShadow_5126_16138"/>
<feBlend mode="normal" in="SourceGraphic" in2="effect1_dropShadow_5126_16138" result="shape"/>
<feColorMatrix in="SourceAlpha" type="matrix" values="0 0 0 0 0 0 0 0 0 0 0 0 0 0 0 0 0 0 127 0" result="hardAlpha"/>
<feOffset dx="-0.5" dy="0.5"/>
<feGaussianBlur stdDeviation="0.5"/>
<feComposite in2="hardAlpha" operator="arithmetic" k2="-1" k3="1"/>
<feColorMatrix type="matrix" values="0 0 0 0 0 0 0 0 0 0 0 0 0 0 0 0 0 0 1 0"/>
<feBlend mode="normal" in2="shape" result="effect2_innerShadow_5126_16138"/>
</filter>
<filter id="filter1_di_5126_16138" x="43.5" y="12" width="1.5" height="7.5" filterUnits="userSpaceOnUse" color-interpolation-filters="sRGB">
<feFlood flood-opacity="0" result="BackgroundImageFix"/>
<feColorMatrix in="SourceAlpha" type="matrix" values="0 0 0 0 0 0 0 0 0 0 0 0 0 0 0 0 0 0 127 0" result="hardAlpha"/>
<feOffset dx="-0.2" dy="0.2"/>
<feGaussianBlur stdDeviation="0.1"/>
<feComposite in2="hardAlpha" operator="out"/>
<feColorMatrix type="matrix" values="0 0 0 0 1 0 0 0 0 1 0 0 0 0 1 0 0 0 1 0"/>
<feBlend mode="normal" in2="BackgroundImageFix" result="effect1_dropShadow_5126_16138"/>
<feBlend mode="normal" in="SourceGraphic" in2="effect1_dropShadow_5126_16138" result="shape"/>
<feColorMatrix in="SourceAlpha" type="matrix" values="0 0 0 0 0 0 0 0 0 0 0 0 0 0 0 0 0 0 127 0" result="hardAlpha"/>
<feOffset dx="-0.5" dy="0.5"/>
<feGaussianBlur stdDeviation="0.5"/>
<feComposite in2="hardAlpha" operator="arithmetic" k2="-1" k3="1"/>
<feColorMatrix type="matrix" values="0 0 0 0 0 0 0 0 0 0 0 0 0 0 0 0 0 0 1 0"/>
<feBlend mode="normal" in2="shape" result="effect2_innerShadow_5126_16138"/>
</filter>
<filter id="filter2_di_5126_16138" x="27.9209" y="3.57227" width="13.0908" height="12.6392" filterUnits="userSpaceOnUse" color-interpolation-filters="sRGB">
<feFlood flood-opacity="0" result="BackgroundImageFix"/>
<feColorMatrix in="SourceAlpha" type="matrix" values="0 0 0 0 0 0 0 0 0 0 0 0 0 0 0 0 0 0 127 0" result="hardAlpha"/>
<feOffset dx="-0.2" dy="0.2"/>
<feGaussianBlur stdDeviation="0.1"/>
<feComposite in2="hardAlpha" operator="out"/>
<feColorMatrix type="matrix" values="0 0 0 0 1 0 0 0 0 1 0 0 0 0 1 0 0 0 1 0"/>
<feBlend mode="normal" in2="BackgroundImageFix" result="effect1_dropShadow_5126_16138"/>
<feBlend mode="normal" in="SourceGraphic" in2="effect1_dropShadow_5126_16138" result="shape"/>
<feColorMatrix in="SourceAlpha" type="matrix" values="0 0 0 0 0 0 0 0 0 0 0 0 0 0 0 0 0 0 127 0" result="hardAlpha"/>
<feOffset dx="-0.5" dy="0.5"/>
<feGaussianBlur stdDeviation="0.5"/>
<feComposite in2="hardAlpha" operator="arithmetic" k2="-1" k3="1"/>
<feColorMatrix type="matrix" values="0 0 0 0 0 0 0 0 0 0 0 0 0 0 0 0 0 0 1 0"/>
<feBlend mode="normal" in2="shape" result="effect2_innerShadow_5126_16138"/>
</filter>
<filter id="filter3_di_5126_16138" x="23.3237" y="9.49951" width="14.6177" height="19.0293" filterUnits="userSpaceOnUse" color-interpolation-filters="sRGB">
<feFlood flood-opacity="0" result="BackgroundImageFix"/>
<feColorMatrix in="SourceAlpha" type="matrix" values="0 0 0 0 0 0 0 0 0 0 0 0 0 0 0 0 0 0 127 0" result="hardAlpha"/>
<feOffset dx="-0.2" dy="0.2"/>
<feGaussianBlur stdDeviation="0.1"/>
<feComposite in2="hardAlpha" operator="out"/>
<feColorMatrix type="matrix" values="0 0 0 0 1 0 0 0 0 1 0 0 0 0 1 0 0 0 1 0"/>
<feBlend mode="normal" in2="BackgroundImageFix" result="effect1_dropShadow_5126_16138"/>
<feBlend mode="normal" in="SourceGraphic" in2="effect1_dropShadow_5126_16138" result="shape"/>
<feColorMatrix in="SourceAlpha" type="matrix" values="0 0 0 0 0 0 0 0 0 0 0 0 0 0 0 0 0 0 127 0" result="hardAlpha"/>
<feOffset dx="-0.5" dy="0.5"/>
<feGaussianBlur stdDeviation="0.5"/>
<feComposite in2="hardAlpha" operator="arithmetic" k2="-1" k3="1"/>
<feColorMatrix type="matrix" values="0 0 0 0 0 0 0 0 0 0 0 0 0 0 0 0 0 0 1 0"/>
<feBlend mode="normal" in2="shape" result="effect2_innerShadow_5126_16138"/>
</filter>
<filter id="filter4_di_5126_16138" x="1.78955" y="9.53174" width="13.6479" height="19.4092" filterUnits="userSpaceOnUse" color-interpolation-filters="sRGB">
<feFlood flood-opacity="0" result="BackgroundImageFix"/>
<feColorMatrix in="SourceAlpha" type="matrix" values="0 0 0 0 0 0 0 0 0 0 0 0 0 0 0 0 0 0 127 0" result="hardAlpha"/>
<feOffset dx="-0.2" dy="0.2"/>
<feGaussianBlur stdDeviation="0.1"/>
<feComposite in2="hardAlpha" operator="out"/>
<feColorMatrix type="matrix" values="0 0 0 0 1 0 0 0 0 1 0 0 0 0 1 0 0 0 1 0"/>
<feBlend mode="normal" in2="BackgroundImageFix" result="effect1_dropShadow_5126_16138"/>
<feBlend mode="normal" in="SourceGraphic" in2="effect1_dropShadow_5126_16138" result="shape"/>
<feColorMatrix in="SourceAlpha" type="matrix" values="0 0 0 0 0 0 0 0 0 0 0 0 0 0 0 0 0 0 127 0" result="hardAlpha"/>
<feOffset dx="-0.5" dy="0.5"/>
<feGaussianBlur stdDeviation="0.5"/>
<feComposite in2="hardAlpha" operator="arithmetic" k2="-1" k3="1"/>
<feColorMatrix type="matrix" values="0 0 0 0 0 0 0 0 0 0 0 0 0 0 0 0 0 0 1 0"/>
<feBlend mode="normal" in2="shape" result="effect2_innerShadow_5126_16138"/>
</filter>
<filter id="filter5_di_5126_16138" x="1.26465" y="3.32324" width="28.7354" height="25.2061" filterUnits="userSpaceOnUse" color-interpolation-filters="sRGB">
<feFlood flood-opacity="0" result="BackgroundImageFix"/>
<feColorMatrix in="SourceAlpha" type="matrix" values="0 0 0 0 0 0 0 0 0 0 0 0 0 0 0 0 0 0 127 0" result="hardAlpha"/>
<feOffset dx="-0.2" dy="0.2"/>
<feGaussianBlur stdDeviation="0.1"/>
<feComposite in2="hardAlpha" operator="out"/>
<feColorMatrix type="matrix" values="0 0 0 0 1 0 0 0 0 1 0 0 0 0 1 0 0 0 1 0"/>
<feBlend mode="normal" in2="BackgroundImageFix" result="effect1_dropShadow_5126_16138"/>
<feBlend mode="normal" in="SourceGraphic" in2="effect1_dropShadow_5126_16138" result="shape"/>
<feColorMatrix in="SourceAlpha" type="matrix" values="0 0 0 0 0 0 0 0 0 0 0 0 0 0 0 0 0 0 127 0" result="hardAlpha"/>
<feOffset dx="-0.5" dy="0.5"/>
<feGaussianBlur stdDeviation="0.5"/>
<feComposite in2="hardAlpha" operator="arithmetic" k2="-1" k3="1"/>
<feColorMatrix type="matrix" values="0 0 0 0 0 0 0 0 0 0 0 0 0 0 0 0 0 0 1 0"/>
<feBlend mode="normal" in2="shape" result="effect2_innerShadow_5126_16138"/>
</filter>
</defs>
</svg>
