<svg width="312" height="176" viewBox="0 0 312 176" fill="none" xmlns="http://www.w3.org/2000/svg">
<rect width="312" height="176" rx="6" fill="#273C5B" fill-opacity="0.08"/>
<path d="M183.207 27.6585C171.839 25.1223 160.02 23.9068 148.463 24.6816C138.221 25.3684 126.611 27.2428 118.368 33.957C114.44 37.1567 109.756 42.9063 108.471 47.9784C108.471 47.979 101.708 74.6767 88.1823 80.3977C74.6564 86.1188 65.2634 183.758 167.835 174.223C167.835 174.223 228.08 171.725 231.707 99.7553C232.583 82.3698 232.094 63.2571 221.596 48.7199C213.552 37.5799 202.281 32.6267 189.33 29.1609C187.306 28.6195 185.264 28.1174 183.207 27.6585Z" fill="#F4F7FA"/>
<path d="M184.677 120.817C177.846 124.575 168.436 123.302 163.103 115.729C160.116 111.486 158.218 105.505 157.134 100.48C150.396 69.2262 168.262 87.4886 167.705 68.332C167.147 49.1755 167.789 36.4816 192.35 29.814C192.35 29.814 214.369 23.1464 207.225 50.1936C205.916 55.1502 203.959 60.0745 200.766 64.1339C197.411 68.3999 192.957 71.5989 188.801 75.0207C183.827 79.1157 187.289 85.9111 189.158 90.7182C191.481 96.6923 193.764 102.748 192.692 109.269C191.803 114.678 188.683 118.613 184.677 120.817Z" fill="url(#paint0_linear_4093_57003)"/>
<g opacity="0.8">
<path d="M178.012 120.032C177.924 120.032 177.843 119.974 177.819 119.885C177.785 119.764 174.465 107.59 173.771 93.6264C173.363 85.4184 173.928 78.2049 175.451 72.1862C177.359 64.6417 180.787 58.9607 185.638 55.3011C185.726 55.2346 185.852 55.2521 185.919 55.3404C185.985 55.4287 185.968 55.5544 185.879 55.621C175.048 63.792 173.534 80.7877 174.171 93.6065C174.864 107.526 178.172 119.658 178.205 119.778C178.234 119.885 178.172 119.995 178.065 120.025C178.047 120.03 178.029 120.032 178.012 120.032Z" fill="white"/>
</g>
<path d="M174.237 132.173C173.303 132.041 172.446 131.397 171.728 130.038C168.747 124.4 174.317 115.861 174.437 109.939C174.557 103.984 173.251 98.1772 171.806 92.4493C170.316 86.5424 169.55 80.2646 173.604 75.1672C177.099 70.7721 183.095 67.4224 188.547 70.681C198.645 76.7148 198.379 66.6233 200.125 59.8175C202.134 51.9837 210.909 42.8832 219.618 44.557C227.428 46.0581 230.648 57.1246 230.651 63.9868C230.652 67.57 229.333 73.0415 226.583 75.6157C220.254 81.5402 205.917 81.4994 211.455 92.9827C213.322 96.8544 215.077 100.998 211.535 104.53C207.905 108.149 201.906 108.465 197.369 110.279C192.209 112.342 188.717 116.576 185.589 120.985C184.069 123.128 178.399 132.758 174.237 132.173Z" fill="url(#paint1_linear_4093_57003)"/>
<g opacity="0.8">
<path d="M173.696 130.381C173.677 130.38 173.658 130.376 173.639 130.369C173.535 130.331 173.482 130.216 173.519 130.112C173.564 129.988 178.099 117.533 184.981 103.328C189.023 94.9831 193.073 87.6754 197.018 81.6078C201.955 74.0139 206.743 68.3488 211.249 64.7701C211.336 64.7012 211.462 64.7157 211.531 64.8024C211.599 64.889 211.585 65.015 211.498 65.0839C201.362 73.1346 191.679 90.4199 185.341 103.503C178.469 117.689 173.941 130.125 173.896 130.249C173.865 130.334 173.782 130.386 173.696 130.381Z" fill="white"/>
</g>
<path d="M95.7814 39.9006L92.6336 39.7185C90.6392 39.6211 88.8438 41.7976 88.8438 43.6251V155.135C88.8438 157.669 91.4327 158.179 93.4272 157.976L95.7814 157.735V39.9006Z" fill="url(#paint2_linear_4093_57003)"/>
<path d="M180.655 43.8421L93.8869 39.5737C91.8924 39.4755 90.2681 40.8887 90.2681 42.7305V155.111C90.2681 156.953 91.8924 158.279 93.8869 158.074L180.655 149.143C182.222 148.982 183.488 147.536 183.488 145.914V46.9191C183.488 45.2967 182.222 43.9192 180.655 43.8421Z" fill="#D8DEE8"/>
<path opacity="0.3" d="M93.887 156.55C92.8113 156.659 91.9338 155.94 91.9338 154.947V42.8058C91.9338 41.8133 92.8112 41.0473 93.887 41.0981L180.655 45.1968C181.502 45.2368 182.19 45.9835 182.19 46.8613V146.042C182.19 146.92 181.502 147.704 180.655 147.789L93.887 156.55Z" fill="url(#paint3_linear_4093_57003)"/>
<path d="M175.062 145.129L100.849 152.28V48.8193L175.062 51.6143V145.129Z" fill="white"/>
<path opacity="0.3" d="M145.38 52.1208L115.72 52.4919L116.385 45.8031C116.435 44.934 117.064 44.2205 117.891 44.0934L122.914 43.3215C123.505 43.2307 124.015 42.8398 124.273 42.2785L124.818 41.0957L137.956 41.907L145.38 52.1208Z" fill="#97A6B7"/>
<path d="M161.218 47.7814C161.077 47.0246 160.471 46.4934 159.707 46.4592L154.968 46.2468C152.817 46.1504 151.24 44.4029 151.319 42.1894L151.502 37.0601C151.535 36.1115 150.858 35.3514 149.927 35.2958L148.37 35.2028C147.182 35.1319 146.392 34.0852 146.558 32.8748C146.849 30.7597 145.4 28.9343 143.3 28.7912C141.183 28.6469 139.207 30.2642 138.892 32.4064C138.845 32.7247 138.738 33.0393 138.563 33.32C138.074 34.1046 137.217 34.5366 136.377 34.4865L134.771 34.3906C133.798 34.3324 132.873 35.0155 132.626 35.9766L131.291 41.1832C130.713 43.4349 128.535 45.0621 126.221 44.9584L121.022 44.7254C120.171 44.6872 119.335 45.1835 118.943 45.9616L115.81 52.1779C115.554 52.687 115.87 53.237 116.429 53.2556L161.513 54.7531C162.007 54.7695 162.426 54.2775 162.335 53.7885L161.218 47.7814ZM142.661 33.2306C142.04 33.1921 141.609 32.6522 141.699 32.0248C141.79 31.3974 142.367 30.9216 142.987 30.962C143.607 31.0024 144.036 31.5421 143.946 32.1676C143.856 32.793 143.281 33.269 142.661 33.2306Z" fill="url(#paint4_linear_4093_57003)"/>
<path d="M161.485 47.9206C161.344 47.1638 160.738 46.6327 159.974 46.5984L155.235 46.386C153.084 46.2896 151.507 44.542 151.586 42.3286L151.769 37.1993C151.802 36.2507 151.125 35.4905 150.194 35.435L148.637 35.342C147.449 35.271 146.659 34.2243 146.825 33.014C147.116 30.8988 145.667 29.0735 143.567 28.9303C141.45 28.7861 139.474 30.4033 139.159 32.5456C139.112 32.8639 139.005 33.1784 138.83 33.4591C138.341 34.2438 137.484 34.6757 136.644 34.6256L135.038 34.5297C134.065 34.4715 133.14 35.1546 132.893 36.1157L131.558 41.3223C130.98 43.5741 128.801 45.2012 126.488 45.0976L121.289 44.8646C120.438 44.8264 119.602 45.3226 119.21 46.1007L116.077 52.3171C115.821 52.8262 116.137 53.3761 116.696 53.3948L161.78 54.8922C162.274 54.9086 162.692 54.4166 162.602 53.9277L161.485 47.9206ZM142.928 33.3698C142.307 33.3313 141.876 32.7914 141.966 32.164C142.056 31.5366 142.634 31.0607 143.254 31.1012C143.874 31.1416 144.303 31.6812 144.212 32.3067C144.122 32.9322 143.548 33.4082 142.928 33.3698Z" fill="#97A6B7"/>
<path opacity="0.5" d="M153.769 50.7772C149.748 48.2945 146.662 50.0548 144.155 47.2547C141.472 44.2572 143.282 40.311 140.506 38.4489C138.728 37.2567 137.143 38.3082 135.076 37.9855C134.319 37.8674 133.511 37.5664 132.672 36.98L131.558 41.3223C130.98 43.5741 128.801 45.2011 126.488 45.0975L121.289 44.8645C120.438 44.8264 119.602 45.3226 119.21 46.1007L116.077 52.317C115.821 52.8261 116.137 53.3762 116.696 53.3946L157.668 54.7555C156.636 53.1166 155.354 51.7557 153.769 50.7772Z" fill="white"/>
<path d="M118.763 97.1472V104.088L112.691 104.273V97.2601L118.763 97.1472ZM119.508 96.3887L111.946 96.5292V105.041L119.508 104.81V96.3887Z" fill="#D8DEE8"/>
<path d="M169.27 103.289L122.288 104.725V96.3368L169.27 95.4634V103.289Z" fill="#D8DEE8"/>
<path d="M118.763 109.431V116.37L112.691 116.662V109.649L118.763 109.431ZM119.508 108.659L111.946 108.931V117.443L119.508 117.08V108.659Z" fill="#D8DEE8"/>
<path d="M169.27 114.692L122.288 116.947V108.559L169.27 106.866V114.692Z" fill="#D8DEE8"/>
<path d="M118.763 121.714V128.652L112.691 129.05V122.039L118.763 121.714ZM119.508 120.929L111.946 121.333V129.845L119.508 129.35V120.929Z" fill="#D8DEE8"/>
<path d="M169.27 126.094L122.288 129.168V120.78L169.27 118.268V126.094Z" fill="#D8DEE8"/>
<path d="M118.763 133.998V140.934L112.691 141.438V134.429L118.763 133.998ZM119.508 133.199L111.946 133.735V142.247L119.508 141.62V133.199Z" fill="#D8DEE8"/>
<path d="M169.27 137.496L122.288 141.39V133.002L169.27 129.67V137.496Z" fill="#D8DEE8"/>
<path d="M169.27 64.5034L111.668 63.1587V58.1548L169.27 59.7681V64.5034Z" fill="#D8DEE8"/>
<path d="M169.27 75.026L111.668 74.2788V71.7769L169.27 72.6584V75.026Z" fill="#D8DEE8"/>
<path d="M169.27 78.928L111.668 78.4024V75.9004L169.27 76.5604V78.928Z" fill="#D8DEE8"/>
<path d="M169.27 82.83L111.668 82.5259V80.0239L169.27 80.4624V82.83Z" fill="#D8DEE8"/>
<path d="M113.052 105.405C112.905 105.417 112.756 105.386 112.629 105.308L109.102 103.168C108.772 102.968 108.698 102.541 108.937 102.216C109.176 101.89 109.636 101.791 109.965 101.991L112.955 103.819L121.285 94.5848C121.542 94.2999 121.978 94.2592 122.258 94.4935C122.538 94.7274 122.557 95.1474 122.302 95.4323L113.585 105.142C113.443 105.299 113.249 105.39 113.052 105.405Z" fill="#97A6B7"/>
<path d="M113.505 118.579C113.358 118.595 113.209 118.57 113.082 118.497L109.564 116.483C109.235 116.295 109.161 115.871 109.4 115.538C109.638 115.205 110.097 115.089 110.425 115.277L113.407 116.998L121.718 107.481C121.975 107.187 122.409 107.131 122.689 107.356C122.968 107.579 122.987 107.998 122.732 108.292L114.036 118.297C113.895 118.459 113.701 118.556 113.505 118.579Z" fill="#97A6B7"/>
<path d="M113.052 131.056C112.905 131.078 112.756 131.057 112.629 130.988L109.102 129.09C108.772 128.912 108.698 128.491 108.937 128.149C109.176 127.807 109.636 127.676 109.965 127.854L112.955 129.477L121.285 119.671C121.542 119.368 121.978 119.298 122.258 119.513C122.538 119.727 122.557 120.146 122.302 120.448L113.585 130.756C113.443 130.923 113.249 131.027 113.052 131.056Z" fill="#97A6B7"/>
<path d="M113.052 141.683C112.905 141.709 112.756 141.692 112.629 141.627L109.102 139.829C108.772 139.661 108.698 139.241 108.937 138.892C109.176 138.544 109.636 138.399 109.965 138.568L112.955 140.106L121.285 130.063C121.542 129.753 121.978 129.671 122.258 129.878C122.538 130.084 122.557 130.503 122.302 130.812L113.585 141.368C113.443 141.538 113.249 141.648 113.052 141.683Z" fill="#97A6B7"/>
<path d="M183.375 118.658L163.428 119.738V86.9984L183.375 83.3076V118.658Z" fill="url(#paint5_linear_4093_57003)"/>
<path d="M208.56 117.773L183.375 118.658V83.3076L208.56 86.704V117.773Z" fill="url(#paint6_linear_4093_57003)"/>
<path d="M213.658 115.751V156.897L179.763 161.993L179.78 114.621V114.617L213.658 115.751Z" fill="url(#paint7_linear_4093_57003)"/>
<path d="M179.731 114.617V161.994L153.123 157.263V116.994L160.9 116.302L171.757 115.33L179.731 114.617Z" fill="url(#paint8_linear_4093_57003)"/>
<path d="M171.808 115.331V123.108L160.818 123.334V116.299L171.808 115.331Z" fill="white"/>
<path opacity="0.2" d="M213.658 155.077V156.897L179.746 161.993L179.754 114.621C180.102 114.733 186.195 116.764 187.219 123.876C187.81 127.963 187.922 132.852 190.393 136.354C193.752 141.113 200.598 139.704 204.263 143.836C205.394 145.11 206.146 146.634 206.663 148.248C207.697 151.464 206.928 154.415 211.135 154.841C211.896 154.918 212.727 154.971 213.658 155.077Z" fill="url(#paint9_linear_4093_57003)"/>
<path d="M206.551 93.3263L199.514 92.8465V87.5557L206.551 88.1963V93.3263Z" fill="white"/>
<path d="M210.252 126.378L202.871 126.154V120.268L210.252 120.889V126.378Z" fill="white"/>
<path d="M187.682 106.361C187.682 106.361 187.322 105.641 187.682 104.742C188.042 103.843 188.042 102.404 188.221 101.864C188.265 101.734 188.256 101.656 188.215 101.625C188.13 101.562 187.742 102.079 187.502 102.583C187.077 103.477 187.194 104.158 186.962 104.202C186.703 104.252 186.412 103.429 186.243 103.483C186.112 103.525 186.243 104.055 186.243 104.562C186.243 104.922 187.142 106.721 187.142 106.721L187.682 106.361Z" fill="url(#paint10_linear_4093_57003)"/>
<path d="M207.291 114.14C207.335 113.259 207.429 111.334 206.364 110.663C204.957 109.776 202.887 111.933 200.568 112.517C198.129 113.132 194.195 112.315 187.816 105.33C187.43 105.716 187.043 106.103 186.657 106.489C187.315 108.807 189.006 113.366 193.38 116.691C194.402 117.467 200.606 122.183 204.509 119.705C206.423 118.49 207.204 115.913 207.291 114.14Z" fill="url(#paint11_linear_4093_57003)"/>
<path d="M208.429 163.439C208.608 163.585 208.641 163.95 208.663 164.188C208.672 164.294 208.677 164.348 208.665 164.385C208.579 164.66 208.047 164.688 207.212 164.774C205.894 164.908 205.502 165.012 205.399 164.816C205.302 164.632 205.536 164.331 205.562 164.298C205.704 164.119 205.878 164.054 206.214 163.944C206.836 163.739 207.256 163.627 207.383 163.593C208.178 163.381 208.311 163.343 208.429 163.439Z" fill="url(#paint12_linear_4093_57003)"/>
<path d="M207.645 162.235L207.513 163.737C207.55 163.81 207.997 164.027 208.352 163.841L208.691 162.364L207.645 162.235Z" fill="url(#paint13_linear_4093_57003)"/>
<path d="M196.905 162.774C197.12 163.012 197.169 163.45 196.982 163.666C196.798 163.878 196.521 163.719 195.737 163.742C194.896 163.767 194.677 163.966 194.105 163.808C193.875 163.744 193.467 163.59 193.475 163.425C193.48 163.309 193.688 163.249 194.381 163.017C195.364 162.687 195.36 162.669 195.569 162.635C196.094 162.548 196.621 162.461 196.905 162.774Z" fill="url(#paint14_linear_4093_57003)"/>
<path d="M196.366 161.403L195.945 162.806C195.977 162.881 196.405 163.132 196.773 162.973L197.399 161.612L196.366 161.403Z" fill="url(#paint15_linear_4093_57003)"/>
<path d="M200.113 130.688C200.052 135.401 199.731 140.701 198.959 146.458C198.196 152.149 197.127 157.291 195.961 161.812C196.499 161.957 197.037 162.102 197.575 162.246C198.94 160.974 200.661 158.971 201.492 156.14C202.008 154.383 201.836 153.48 202.163 151.319C202.683 147.878 203.738 146.075 204.828 143.3C205.808 140.807 206.966 137.148 207.587 132.257C205.095 131.734 202.604 131.211 200.113 130.688Z" fill="url(#paint16_linear_4093_57003)"/>
<path opacity="0.3" d="M200.113 130.688C201.582 131.808 203.408 133.574 203.35 135.702C203.307 137.282 202.268 137.572 201.495 139.876C200.548 142.7 201.702 143.485 201.032 147.063C200.533 149.726 199.92 149.151 199.177 152.396C198.515 155.284 198.809 156.579 197.786 158.887C197.197 160.216 196.475 161.195 195.961 161.812C196.499 161.957 197.037 162.102 197.575 162.246C198.94 160.974 200.661 158.971 201.492 156.14C202.007 154.383 201.836 153.48 202.163 151.319C202.683 147.878 203.738 146.075 204.828 143.3C205.808 140.807 206.966 137.148 207.587 132.257C205.095 131.734 202.604 131.211 200.113 130.688Z" fill="url(#paint17_linear_4093_57003)"/>
<path d="M206.039 130.709C206.367 136.704 206.638 142.81 206.843 149.024C206.997 153.687 207.109 158.291 207.184 162.835C207.734 162.902 208.283 162.97 208.833 163.038C209.364 162.05 210.069 160.538 210.552 158.601C211.139 156.249 211.003 154.852 211.261 152.413C211.55 149.679 211.969 149.083 212.712 145.633C214.22 138.632 214.974 135.131 213.293 132.953C212.747 132.246 211.035 130.473 206.039 130.709Z" fill="url(#paint18_linear_4093_57003)"/>
<path d="M203.747 114.266C203.13 113.867 203.692 112.703 203.725 110.205C203.766 107.143 202.953 106.572 203.606 105.371C204.404 103.902 206.415 103.294 207.747 103.266C208.041 103.259 208.109 103.099 210.571 103.736C215.005 104.885 216.115 103.654 218.101 104.883C220.019 106.071 219.179 107.373 221.042 108.766C224.062 111.024 227.237 108.583 229.395 110.472C231.437 112.259 231.484 116.812 229.337 119.296C226.902 122.113 222.513 121.266 219.571 120.708C218.952 120.591 215.826 119.934 212.571 117.531C210.77 116.202 209.534 114.783 208.747 113.737C208.562 113.529 208.274 113.277 207.894 113.237C207.437 113.188 207.071 113.467 206.894 113.59C205.966 114.233 204.352 114.659 203.747 114.266Z" fill="url(#paint19_linear_4093_57003)"/>
<path d="M205.987 110.958C205.987 110.958 211.137 109.456 213.406 112.023C213.759 112.423 214.117 113.012 214.391 114.312C215.354 118.871 212.792 120.495 213.142 124.633C213.182 125.107 213.629 129.656 216.933 132.452C218.504 133.782 220.294 134.354 220.25 135.533C220.219 136.381 219.251 137.155 218.355 137.428C216.64 137.952 215.64 136.507 213.379 136.007C211.016 135.484 210.468 136.7 206.744 137.191C205.504 137.355 199.846 138.102 198.45 135.77C197.856 134.777 198.589 134.153 199.635 130.083C199.741 129.671 201.553 122.518 201.004 119.401C200.957 119.131 200.797 118.035 200.844 116.582C200.856 116.222 200.901 115.821 201.004 115.342C201.004 115.342 201.442 113.311 203.021 111.567C203.248 111.317 203.518 111.056 205.987 110.958Z" fill="url(#paint20_linear_4093_57003)"/>
<g opacity="0.2">
<path d="M213.406 112.023C213.925 112.017 214.33 114.022 214.392 114.311C215.354 118.871 212.792 120.495 213.142 124.632C213.182 125.106 213.629 129.656 216.933 132.452C218.505 133.782 220.295 134.353 220.251 135.532C220.219 136.381 219.251 137.154 218.355 137.428C216.64 137.951 215.64 136.506 213.379 136.006C211.016 135.484 210.468 136.699 206.744 137.191C205.505 137.355 199.847 138.102 198.451 135.769C198.307 135.528 198.252 135.423 198.266 135.32C198.422 134.186 203.66 135.217 204.973 133.151C206.256 131.133 202.933 127.51 204.046 126.428C204.915 125.582 207.132 127.607 208.915 126.66C210.033 126.065 210.217 124.707 210.769 121.791C211.739 116.67 212.618 112.032 213.406 112.023Z" fill="url(#paint21_linear_4093_57003)"/>
</g>
<path d="M207.641 107.617C207.571 107.943 207.216 109.691 207.931 110.141C208.086 110.239 208.384 110.295 208.981 110.407C209.371 110.48 209.698 110.524 209.929 110.552C209.896 110.845 209.797 111.323 209.459 111.757C208.51 112.974 206.608 112.659 206.336 112.61C205.38 112.435 204.438 112.14 204.211 111.959C203.864 111.684 203.592 111.478 203.431 111.268C203.801 111.089 204.549 110.617 205.051 110.463C205.426 110.347 205.778 110.265 206.098 110.206C206.15 109.868 206.203 109.53 206.256 109.192C206.717 108.667 207.179 108.142 207.641 107.617Z" fill="url(#paint22_linear_4093_57003)"/>
<path d="M207.674 108.488C207.674 108.488 207.545 109.77 206.299 109.995C205.184 110.198 204.344 107.502 204.915 106.805C205.105 106.572 205.575 106.351 205.983 106.363C206.269 106.371 207.238 106.74 207.373 107.708C207.565 107.505 207.806 107.447 207.924 107.532C208.074 107.64 207.994 107.954 207.976 108.025C207.912 108.271 207.752 108.424 207.674 108.488Z" fill="url(#paint23_linear_4093_57003)"/>
<path d="M205.69 129.291L202.217 120.689C201.982 120.107 202.291 119.448 202.889 119.257L209.763 117.061C210.161 116.971 210.565 117.185 210.714 117.565L214.266 126.633C214.443 127.085 214.194 127.591 213.728 127.726L206.683 129.77C206.279 129.887 205.85 129.681 205.69 129.291Z" fill="#26264F"/>
<path d="M206.132 124.342C206.132 124.342 205.437 123.878 205.437 123.414C205.437 122.95 204.973 122.255 204.741 122.255C204.509 122.255 204.509 122.487 204.741 122.95C204.973 123.414 203.814 123.182 203.35 122.719C202.887 122.255 202.423 122.255 202.655 122.487C203.021 122.853 203.118 123.182 203.118 123.182C203.118 123.182 203.582 125.037 205.611 124.921L206.132 124.342Z" fill="url(#paint24_linear_4093_57003)"/>
<path d="M211.001 111.126C212.484 110.465 214.966 113.192 215.406 113.677C217.744 116.246 221.06 122.07 218.42 125.501C216.219 128.363 210.307 128.994 205.437 125.269C205.669 124.805 205.9 124.342 206.132 123.878C206.638 124.061 209.963 125.213 212.392 123.414C212.908 123.033 213.7 122.446 213.783 121.56C213.939 119.907 211.428 119.398 210.306 116.923C209.312 114.731 209.722 111.697 211.001 111.126Z" fill="url(#paint25_linear_4093_57003)"/>
<path opacity="0.3" d="M145.907 97.967C138.818 108.972 124.027 111.922 112.765 104.262C101.267 96.4429 98.0827 80.7762 105.759 69.5807C113.315 58.5602 128.36 56.3612 139.268 64.3662C149.96 72.2124 152.89 87.1276 145.907 97.967Z" fill="white"/>
<path d="M82.5546 150.478L81.8578 150.045C80.7469 149.355 80.4442 147.895 81.1827 146.787L110.138 103.348L114.586 106.369L85.8842 149.72C85.1522 150.825 83.662 151.166 82.5546 150.478Z" fill="url(#paint26_linear_4093_57003)"/>
<path d="M147.244 99.6346C139.126 112.295 122.13 115.753 109.14 106.971C95.8374 97.9779 92.1493 79.8838 101.046 66.9708C109.782 54.2904 127.115 51.8264 139.636 61.0653C151.872 70.094 155.222 87.1931 147.244 99.6346ZM143.686 97.119C150.444 86.6394 147.609 72.2153 137.265 64.6338C126.719 56.904 112.185 59.0413 104.892 69.6902C97.4866 80.5024 100.56 95.6282 111.655 103.185C122.532 110.592 136.828 107.754 143.686 97.119Z" fill="url(#paint27_linear_4093_57003)"/>
<path opacity="0.3" d="M110.138 103.348L106.446 108.886C107.396 110.733 107.478 112.172 107.266 113.262C106.471 117.363 101.307 117.84 98.6581 124.057C97.3291 127.178 98.404 127.587 96.9198 130.221C94.466 134.575 91.2271 133.991 89.0844 137.88C86.9172 141.813 88.8833 144.858 86.9728 146.258C86.1556 146.857 84.6816 147.115 81.7883 145.879L81.1827 146.787C80.4442 147.895 80.7469 149.355 81.8578 150.045L82.5545 150.478C83.6619 151.166 85.1521 150.825 85.884 149.72L114.586 106.369L110.138 103.348Z" fill="#D8DEE8"/>
<path d="M148.812 100.021C140.694 112.681 123.698 116.14 110.708 107.357C97.4058 98.3641 93.7177 80.27 102.614 67.357C111.35 54.6767 128.684 52.2126 141.204 61.4515C153.44 70.4802 156.79 87.5792 148.812 100.021ZM145.254 97.5052C152.012 87.0255 149.177 72.6015 138.834 65.02C128.288 57.2902 113.754 59.4274 106.46 70.0764C99.055 80.8886 102.128 96.0143 113.224 103.571C124.101 110.978 138.397 108.14 145.254 97.5052Z" fill="url(#paint28_linear_4093_57003)"/>
<path d="M147.557 99.1328C139.883 111.077 123.841 114.313 111.6 106.016C99.0809 97.5304 95.6115 80.4892 103.978 68.3206C112.201 56.3587 128.544 54.0073 140.367 62.7112C151.937 71.228 155.106 87.3837 147.557 99.1328ZM145.254 97.5049C152.012 87.0252 149.178 72.6012 138.834 65.0197C128.288 57.29 113.754 59.4272 106.46 70.0761C99.0551 80.8883 102.128 96.014 113.224 103.571C124.101 110.978 138.397 108.14 145.254 97.5049Z" fill="url(#paint29_linear_4093_57003)"/>
<path d="M148.39 172.545C148.332 172.224 147.295 171.934 146.782 172.364C146.527 172.577 146.352 173.01 146.499 173.206C146.553 173.277 146.333 173.402 146.544 173.404C147.242 173.412 148.448 172.864 148.39 172.545Z" fill="url(#paint30_linear_4093_57003)"/>
<path d="M147.257 172.547L146.181 172.601C146.554 171.923 146.106 170.081 146.106 170.081L147.267 170.115C147.267 170.115 147.238 170.65 147.168 171.445C147.143 171.717 147.188 172.126 147.257 172.547Z" fill="url(#paint31_linear_4093_57003)"/>
<path d="M147.398 172.531C147.398 172.531 146.114 172.235 145.975 172.49C145.837 172.744 145.729 173.426 146.543 173.404C147.358 173.382 147.47 172.747 147.398 172.531Z" fill="url(#paint32_linear_4093_57003)"/>
<path d="M162.003 174.873C161.9 174.564 160.833 174.421 160.385 174.919C160.163 175.166 160.049 175.619 160.223 175.792C160.286 175.855 160.086 176.009 160.295 175.982C160.987 175.892 162.105 175.181 162.003 174.873Z" fill="url(#paint33_linear_4093_57003)"/>
<path d="M160.742 175.172L159.685 175.379C159.957 174.656 159.249 172.897 159.249 172.897L160.403 172.764C160.403 172.764 160.452 173.297 160.495 174.094C160.511 174.366 160.614 174.765 160.742 175.172Z" fill="url(#paint34_linear_4093_57003)"/>
<path d="M161.019 174.998C161.019 174.998 159.706 174.885 159.604 175.156C159.503 175.428 159.491 176.118 160.294 175.982C161.098 175.847 161.12 175.202 161.019 174.998Z" fill="url(#paint35_linear_4093_57003)"/>
<path d="M151.311 137.982C151.024 142.903 150.621 148.019 150.078 153.314C149.449 159.449 148.685 165.31 147.829 170.88C146.773 171.243 145.797 170.88 145.797 170.88C145.797 170.88 144.562 168.858 143.62 163.484C143.016 160.036 142.974 160.079 142.967 159.478C142.933 156.443 143.998 155.565 144.201 152.852C144.389 150.342 143.59 149.591 143.112 146.766C142.745 144.593 142.608 141.427 143.765 137.289C146.281 137.52 148.796 137.751 151.311 137.982Z" fill="url(#paint36_linear_4093_57003)"/>
<path opacity="0.3" d="M151.311 137.982C151.024 142.903 150.621 148.019 150.078 153.314C149.449 159.449 148.685 165.31 147.829 170.88C146.773 171.243 145.797 170.88 145.797 170.88C145.81 170.365 145.846 169.588 145.954 168.649C146.24 166.16 146.695 165.452 146.742 163.924C146.801 161.97 146.094 161.91 145.954 159.986C145.737 157.004 147.375 156.297 147.529 153.686C147.693 150.927 145.965 150.019 144.642 146.597C143.86 144.578 143.167 141.546 143.765 137.289C146.281 137.52 148.796 137.751 151.311 137.982Z" fill="url(#paint37_linear_4093_57003)"/>
<path d="M156.608 137.828C158.054 142.698 159.455 148.747 160.236 155.779C160.994 162.604 160.98 168.665 160.671 173.654C160.212 173.782 159.752 173.911 159.293 174.039C156.621 171.243 155.667 168.674 155.302 166.797C154.763 164.021 155.575 163.079 154.867 159.94C154.704 159.218 154.474 158.442 151.819 153.237C149.285 148.269 148.766 147.548 148.337 145.764C147.724 143.217 147.886 140.959 148.119 139.446C150.949 138.907 153.778 138.367 156.608 137.828Z" fill="url(#paint38_linear_4093_57003)"/>
<path d="M168.002 127.302L172.537 116.68C172.763 116.15 172.459 115.543 171.898 115.406L163.592 113.389C163.143 113.28 162.682 113.516 162.508 113.944L158.337 124.152C158.129 124.661 158.403 125.238 158.928 125.398L166.87 127.828C167.327 127.968 167.815 127.741 168.002 127.302Z" fill="#26264F"/>
<path d="M167.797 126.791L172.033 116.87C172.244 116.374 171.96 115.807 171.436 115.68L163.678 113.796C163.259 113.694 162.828 113.914 162.665 114.313L158.769 123.849C158.575 124.324 158.831 124.863 159.321 125.013L166.74 127.283C167.166 127.413 167.622 127.201 167.797 126.791Z" fill="#F4F7FA"/>
<path d="M170.412 123.875L170.549 122.623L171.27 121.248C171.368 121.061 171.419 120.853 171.419 120.641V119.276L170.549 121.29C170.549 121.29 169.977 120.773 169.759 120.664C169.542 120.555 169.569 120.991 169.732 121.154C169.895 121.317 169.651 122.65 169.814 122.786L169.759 123.603L170.412 123.875Z" fill="url(#paint39_linear_4093_57003)"/>
<path d="M163.501 115.903C162.824 114.247 161.371 113.295 160.617 112.801C158.834 111.632 157.692 111.846 153.597 111.223C148.139 110.392 147.486 109.605 145.652 110.243C143.243 111.081 141.984 113.268 141.407 114.27C138.5 119.323 141.899 121.891 141.027 131.956C140.67 136.066 139.756 139.639 141.952 141.751C142.414 142.196 142.931 142.429 143.965 142.894C148.066 144.739 151.743 144.421 153.978 144.2C156.437 143.956 157.679 143.817 158.331 142.948C159.373 141.561 158.301 139.797 158.114 136.745C157.979 134.553 158.478 132.817 159.474 129.344C161.791 121.27 164.798 119.075 163.501 115.903Z" fill="url(#paint40_linear_4093_57003)"/>
<path d="M154.366 108.244C154.614 107.359 154.18 106.539 154.084 106.363C153.683 105.623 153.581 105.522 153.389 105.394L153.124 105.23C153.124 105.23 153.108 105.224 153.092 105.218C152.921 105.157 152.34 105.14 152.222 105.165C151.846 105.245 151.445 106.778 151.559 108.946C151.544 109.028 151.529 109.112 151.514 109.196C151.455 109.538 151.408 109.874 151.372 110.201C151.337 110.515 150.892 110.508 150.577 110.488C149.298 110.406 148.672 110.515 148.618 110.706C148.516 111.063 150.033 112.229 151.906 112.492C154.419 112.511 156.464 112.243 156.244 111.847C156.147 111.671 154.199 111.162 153.651 110.658C153.15 110.196 153.191 109.719 153.149 109.378C153.301 109.299 154.183 108.896 154.366 108.244Z" fill="url(#paint41_linear_4093_57003)"/>
<path d="M153.903 104.615C153.901 105.286 153.585 106.003 153.423 106.118C153.403 106.133 153.285 106.226 153.18 106.384C153.166 106.406 153.153 106.431 153.142 106.463C152.995 106.887 153.668 107.384 153.538 107.574C153.444 107.711 152.986 107.528 152.932 107.646C152.881 107.758 153.261 107.989 153.203 108.123C153.159 108.224 152.925 108.132 152.777 108.286C152.704 108.363 152.725 108.425 152.647 108.66C152.603 108.793 152.542 108.939 152.494 109.02C152.262 109.415 151.605 109.559 151.478 109.401C151.443 109.357 151.473 109.32 151.437 109.172C151.437 109.172 151.404 109.036 151.309 108.877C151.173 108.651 150.845 108.49 150.514 108.251C149.9 107.81 149.734 107.433 149.684 107.306C149.666 107.261 149.655 107.227 149.647 107.202C149.487 106.707 149.487 105.98 149.709 105.533C150.082 104.784 150.923 105.14 151.611 104.398C152.405 103.541 151.932 102.371 152.363 102.242C152.838 102.099 153.907 103.373 153.903 104.615Z" fill="#26264F"/>
<path d="M153.296 107.416C153.132 107.19 152.843 107.402 152.841 107.695C152.839 107.988 153.123 108.292 153.398 108.234C153.673 108.176 153.518 107.721 153.296 107.416Z" fill="url(#paint42_linear_4093_57003)"/>
<path d="M153.163 106.927L153.545 107.423C153.545 107.423 153.957 108.032 154.197 107.699C154.393 107.426 154.444 107.432 154.456 107.444C154.458 107.446 154.459 107.449 154.459 107.449C154.463 107.448 154.431 107.313 154.402 107.195C154.503 107.341 154.643 107.578 154.728 107.896C154.811 108.205 154.899 108.537 154.724 108.855C154.714 108.873 154.522 109.212 154.163 109.294C154.163 109.294 154.022 109.326 153.426 109.221C153.426 109.221 154.077 108.748 154.087 108.636C154.114 108.33 153.691 108.165 153.376 107.538C153.255 107.297 153.195 107.078 153.163 106.927Z" fill="#26264F"/>
<path opacity="0.3" d="M151.856 141.316C152.579 139.875 150.807 137.961 151.965 135.765C152.948 133.9 154.735 134.318 155.556 132.609C156.548 130.544 154.391 129.002 154.468 125.861C154.56 122.107 157.791 118.348 159.692 118.678C160.922 118.891 161.08 120.726 161.946 122.735C161.18 124.415 160.285 126.518 159.474 129.344C158.478 132.817 157.98 134.553 158.114 136.745C158.301 139.797 159.373 141.561 158.332 142.948C157.68 143.817 156.437 143.956 153.978 144.2C151.744 144.421 148.067 144.739 143.965 142.894C143.446 142.66 143.058 142.485 142.74 142.313C149.148 143.275 151.282 142.458 151.856 141.316Z" fill="url(#paint43_linear_4093_57003)"/>
<path d="M170.657 123.63C170.258 123.457 169.859 123.285 169.46 123.113C168.785 123.803 167.925 124.473 167.201 124.255C166.123 123.931 166.392 121.947 165.079 118.46C163.591 114.51 161.902 113.494 161.052 113.127C160.577 112.922 160.249 112.786 159.855 112.882C158.041 113.326 157.441 118.052 157.95 121.589C158.237 123.582 158.799 127.489 162.004 129.344C162.46 129.607 164.966 131.057 167.446 129.915C169.565 128.939 170.874 126.435 170.657 123.63Z" fill="url(#paint44_linear_4093_57003)"/>
<defs>
<linearGradient id="paint0_linear_4093_57003" x1="155.613" y1="75.9738" x2="208.651" y2="75.9738" gradientUnits="userSpaceOnUse">
<stop stop-color="#FF9085"/>
<stop offset="1" stop-color="#FB6FBB"/>
</linearGradient>
<linearGradient id="paint1_linear_4093_57003" x1="170.429" y1="86.7214" x2="229.093" y2="90.2652" gradientUnits="userSpaceOnUse">
<stop offset="0.0036" stop-color="#E38DDD"/>
<stop offset="1" stop-color="#9571F6"/>
</linearGradient>
<linearGradient id="paint2_linear_4093_57003" x1="88.8438" y1="98.8657" x2="182.063" y2="98.8657" gradientUnits="userSpaceOnUse">
<stop stop-color="#444B8C"/>
<stop offset="0.9964" stop-color="#26264F"/>
</linearGradient>
<linearGradient id="paint3_linear_4093_57003" x1="91.9338" y1="98.8284" x2="182.19" y2="98.8284" gradientUnits="userSpaceOnUse">
<stop offset="0.0036" stop-color="#E38DDD"/>
<stop offset="1" stop-color="#9571F6"/>
</linearGradient>
<linearGradient id="paint4_linear_4093_57003" x1="115.72" y1="41.7678" x2="162.347" y2="41.7678" gradientUnits="userSpaceOnUse">
<stop stop-color="#444B8C"/>
<stop offset="0.9964" stop-color="#26264F"/>
</linearGradient>
<linearGradient id="paint5_linear_4093_57003" x1="183.469" y1="85.8243" x2="160.005" y2="125.453" gradientUnits="userSpaceOnUse">
<stop stop-color="#FFC444"/>
<stop offset="0.3138" stop-color="#FBA94A"/>
<stop offset="0.9964" stop-color="#F36F56"/>
</linearGradient>
<linearGradient id="paint6_linear_4093_57003" x1="204.254" y1="86.5449" x2="181.458" y2="125.044" gradientUnits="userSpaceOnUse">
<stop stop-color="#FFC444"/>
<stop offset="0.3138" stop-color="#FBA94A"/>
<stop offset="0.9964" stop-color="#F36F56"/>
</linearGradient>
<linearGradient id="paint7_linear_4093_57003" x1="208.404" y1="116.023" x2="176.15" y2="170.496" gradientUnits="userSpaceOnUse">
<stop stop-color="#FFC444"/>
<stop offset="0.3138" stop-color="#FBA94A"/>
<stop offset="0.9964" stop-color="#F36F56"/>
</linearGradient>
<linearGradient id="paint8_linear_4093_57003" x1="179.481" y1="117.447" x2="151.075" y2="165.422" gradientUnits="userSpaceOnUse">
<stop stop-color="#FFC444"/>
<stop offset="0.3138" stop-color="#FBA94A"/>
<stop offset="0.9964" stop-color="#F36F56"/>
</linearGradient>
<linearGradient id="paint9_linear_4093_57003" x1="200.61" y1="129.164" x2="177.452" y2="168.276" gradientUnits="userSpaceOnUse">
<stop stop-color="#FFC444"/>
<stop offset="0.3138" stop-color="#FBA94A"/>
<stop offset="0.9964" stop-color="#F36F56"/>
</linearGradient>
<linearGradient id="paint10_linear_4093_57003" x1="187.185" y1="102.909" x2="188.887" y2="109.671" gradientUnits="userSpaceOnUse">
<stop stop-color="#FFC444"/>
<stop offset="0.9964" stop-color="#F36F56"/>
</linearGradient>
<linearGradient id="paint11_linear_4093_57003" x1="215.902" y1="159.175" x2="193.137" y2="99.3829" gradientUnits="userSpaceOnUse">
<stop offset="0.0036" stop-color="#E38DDD"/>
<stop offset="1" stop-color="#9571F6"/>
</linearGradient>
<linearGradient id="paint12_linear_4093_57003" x1="205.393" y1="164.111" x2="208.676" y2="164.206" gradientUnits="userSpaceOnUse">
<stop stop-color="#444B8C"/>
<stop offset="0.9964" stop-color="#26264F"/>
</linearGradient>
<linearGradient id="paint13_linear_4093_57003" x1="207.276" y1="164.158" x2="209.072" y2="161.374" gradientUnits="userSpaceOnUse">
<stop stop-color="#FFC444"/>
<stop offset="0.9964" stop-color="#F36F56"/>
</linearGradient>
<linearGradient id="paint14_linear_4093_57003" x1="193.662" y1="162.735" x2="197.027" y2="163.661" gradientUnits="userSpaceOnUse">
<stop stop-color="#444B8C"/>
<stop offset="0.9964" stop-color="#26264F"/>
</linearGradient>
<linearGradient id="paint15_linear_4093_57003" x1="195.746" y1="163.273" x2="197.792" y2="160.578" gradientUnits="userSpaceOnUse">
<stop stop-color="#FFC444"/>
<stop offset="0.9964" stop-color="#F36F56"/>
</linearGradient>
<linearGradient id="paint16_linear_4093_57003" x1="194.808" y1="157.055" x2="204.116" y2="136.072" gradientUnits="userSpaceOnUse">
<stop stop-color="#444B8C"/>
<stop offset="0.9964" stop-color="#26264F"/>
</linearGradient>
<linearGradient id="paint17_linear_4093_57003" x1="194.808" y1="157.055" x2="204.117" y2="136.072" gradientUnits="userSpaceOnUse">
<stop stop-color="#444B8C"/>
<stop offset="0.9964" stop-color="#26264F"/>
</linearGradient>
<linearGradient id="paint18_linear_4093_57003" x1="200.448" y1="158.519" x2="212.258" y2="138.836" gradientUnits="userSpaceOnUse">
<stop stop-color="#444B8C"/>
<stop offset="0.9964" stop-color="#26264F"/>
</linearGradient>
<linearGradient id="paint19_linear_4093_57003" x1="201.945" y1="102.421" x2="234.73" y2="124.69" gradientUnits="userSpaceOnUse">
<stop stop-color="#311944"/>
<stop offset="1" stop-color="#6B3976"/>
</linearGradient>
<linearGradient id="paint20_linear_4093_57003" x1="213.43" y1="143.338" x2="200.601" y2="109.643" gradientUnits="userSpaceOnUse">
<stop offset="0.0036" stop-color="#E38DDD"/>
<stop offset="1" stop-color="#9571F6"/>
</linearGradient>
<linearGradient id="paint21_linear_4093_57003" x1="213.254" y1="142.832" x2="202.249" y2="113.927" gradientUnits="userSpaceOnUse">
<stop offset="0.0036" stop-color="#E38DDD"/>
<stop offset="1" stop-color="#9571F6"/>
</linearGradient>
<linearGradient id="paint22_linear_4093_57003" x1="207.516" y1="114.705" x2="205.594" y2="105.982" gradientUnits="userSpaceOnUse">
<stop stop-color="#FFC444"/>
<stop offset="0.9964" stop-color="#F36F56"/>
</linearGradient>
<linearGradient id="paint23_linear_4093_57003" x1="206.214" y1="106.933" x2="208.416" y2="118.279" gradientUnits="userSpaceOnUse">
<stop stop-color="#FFC444"/>
<stop offset="0.9964" stop-color="#F36F56"/>
</linearGradient>
<linearGradient id="paint24_linear_4093_57003" x1="204.33" y1="123.166" x2="205.366" y2="129.386" gradientUnits="userSpaceOnUse">
<stop stop-color="#FFC444"/>
<stop offset="0.2327" stop-color="#FCB048"/>
<stop offset="0.9964" stop-color="#F36F56"/>
</linearGradient>
<linearGradient id="paint25_linear_4093_57003" x1="222.47" y1="149.48" x2="202.752" y2="97.6906" gradientUnits="userSpaceOnUse">
<stop offset="0.0036" stop-color="#E38DDD"/>
<stop offset="1" stop-color="#9571F6"/>
</linearGradient>
<linearGradient id="paint26_linear_4093_57003" x1="117.838" y1="110.332" x2="76.7686" y2="144.038" gradientUnits="userSpaceOnUse">
<stop stop-color="#444B8C"/>
<stop offset="0.9964" stop-color="#26264F"/>
</linearGradient>
<linearGradient id="paint27_linear_4093_57003" x1="102.702" y1="101.063" x2="145.078" y2="66.285" gradientUnits="userSpaceOnUse">
<stop stop-color="#444B8C"/>
<stop offset="0.9964" stop-color="#26264F"/>
</linearGradient>
<linearGradient id="paint28_linear_4093_57003" x1="154.781" y1="88.6288" x2="114.544" y2="82.3601" gradientUnits="userSpaceOnUse">
<stop stop-color="#444B8C"/>
<stop offset="0.9964" stop-color="#26264F"/>
</linearGradient>
<linearGradient id="paint29_linear_4093_57003" x1="95.8429" y1="79.6866" x2="149.967" y2="87.6523" gradientUnits="userSpaceOnUse">
<stop stop-color="#444B8C"/>
<stop offset="0.9964" stop-color="#26264F"/>
</linearGradient>
<linearGradient id="paint30_linear_4093_57003" x1="148.966" y1="171.619" x2="146.684" y2="173.136" gradientUnits="userSpaceOnUse">
<stop stop-color="#444B8C"/>
<stop offset="0.9964" stop-color="#26264F"/>
</linearGradient>
<linearGradient id="paint31_linear_4093_57003" x1="146.812" y1="173.129" x2="146.635" y2="169.566" gradientUnits="userSpaceOnUse">
<stop stop-color="#FFC444"/>
<stop offset="0.9964" stop-color="#F36F56"/>
</linearGradient>
<linearGradient id="paint32_linear_4093_57003" x1="148.794" y1="171.361" x2="146.512" y2="172.878" gradientUnits="userSpaceOnUse">
<stop stop-color="#444B8C"/>
<stop offset="0.9964" stop-color="#26264F"/>
</linearGradient>
<linearGradient id="paint33_linear_4093_57003" x1="162.443" y1="173.875" x2="160.396" y2="175.697" gradientUnits="userSpaceOnUse">
<stop stop-color="#444B8C"/>
<stop offset="0.9964" stop-color="#26264F"/>
</linearGradient>
<linearGradient id="paint34_linear_4093_57003" x1="160.386" y1="175.812" x2="159.699" y2="172.311" gradientUnits="userSpaceOnUse">
<stop stop-color="#FFC444"/>
<stop offset="0.9964" stop-color="#F36F56"/>
</linearGradient>
<linearGradient id="paint35_linear_4093_57003" x1="162.237" y1="173.644" x2="160.19" y2="175.466" gradientUnits="userSpaceOnUse">
<stop stop-color="#444B8C"/>
<stop offset="0.9964" stop-color="#26264F"/>
</linearGradient>
<linearGradient id="paint36_linear_4093_57003" x1="151.311" y1="154.165" x2="142.85" y2="154.165" gradientUnits="userSpaceOnUse">
<stop stop-color="#311944"/>
<stop offset="1" stop-color="#6B3976"/>
</linearGradient>
<linearGradient id="paint37_linear_4093_57003" x1="151.311" y1="154.165" x2="143.539" y2="154.165" gradientUnits="userSpaceOnUse">
<stop stop-color="#311944"/>
<stop offset="1" stop-color="#6B3976"/>
</linearGradient>
<linearGradient id="paint38_linear_4093_57003" x1="135.659" y1="159.956" x2="158.936" y2="155.756" gradientUnits="userSpaceOnUse">
<stop stop-color="#311944"/>
<stop offset="0.7407" stop-color="#5C3169"/>
<stop offset="1" stop-color="#6B3976"/>
</linearGradient>
<linearGradient id="paint39_linear_4093_57003" x1="170.285" y1="120.051" x2="171.537" y2="125.764" gradientUnits="userSpaceOnUse">
<stop stop-color="#FFC444"/>
<stop offset="0.9964" stop-color="#F36F56"/>
</linearGradient>
<linearGradient id="paint40_linear_4093_57003" x1="163.814" y1="127.191" x2="140.206" y2="127.191" gradientUnits="userSpaceOnUse">
<stop stop-color="#FF9085"/>
<stop offset="1" stop-color="#FB6FBB"/>
</linearGradient>
<linearGradient id="paint41_linear_4093_57003" x1="154.392" y1="106.835" x2="148.593" y2="120.138" gradientUnits="userSpaceOnUse">
<stop stop-color="#FFC444"/>
<stop offset="0.9964" stop-color="#F36F56"/>
</linearGradient>
<linearGradient id="paint42_linear_4093_57003" x1="154.825" y1="104.103" x2="148.35" y2="118.957" gradientUnits="userSpaceOnUse">
<stop stop-color="#FFC444"/>
<stop offset="0.9964" stop-color="#F36F56"/>
</linearGradient>
<linearGradient id="paint43_linear_4093_57003" x1="164.319" y1="125.155" x2="149.844" y2="138.978" gradientUnits="userSpaceOnUse">
<stop stop-color="#FF9085"/>
<stop offset="1" stop-color="#FB6FBB"/>
</linearGradient>
<linearGradient id="paint44_linear_4093_57003" x1="170.68" y1="121.599" x2="157.776" y2="121.599" gradientUnits="userSpaceOnUse">
<stop stop-color="#FF9085"/>
<stop offset="1" stop-color="#FB6FBB"/>
</linearGradient>
</defs>
</svg>
